Andika Mini.glyphspackage
{
glyphname = zero;
layers = (
{
layerId = m01;
shapes = (
{
closed = 1;
nodes = (
(430,-12,o),
(542,74,o),
(542,361,cs),
(542,628,o),
(439,725,o),
(298,725,cs),
(157,725,o),
(44,626,o),
(44,352,cs),
(44,76,o),
(147,-12,o),
(288,-12,cs)
);
},
{
closed = 1;
nodes = (
(196,71,o),
(142,149,o),
(142,364,cs),
(142,563,o),
(199,642,o),
(293,642,cs),
(392,642,o),
(444,564,o),
(444,349,cs),
(444,150,o),
(387,71,o),
(293,71,cs)
);
}
);
width = 586;
},
{
layerId = "46716DA5-D33B-4776-83A4-F210AE3F70ED";
shapes = (
{
closed = 1;
nodes = (
(454,-12,o),
(564,79,o),
(564,361,cs),
(564,628,o),
(473,725,o),
(307,725,cs),
(152,725,o),
(41,626,o),
(41,351,cs),
(41,81,o),
(142,-12,o),
(298,-12,cs)
);
},
{
closed = 1;
nodes = (
(221,100,o),
(181,183,o),
(181,364,cs),
(181,533,o),
(223,612,o),
(303,612,cs),
(386,612,o),
(425,530,o),
(425,349,cs),
(425,180,o),
(382,100,o),
(303,100,cs)
);
}
);
width = 605;
}
);
unicode = 48;
}
{
glyphname = one;
layers = (
{
layerId = m01;
shapes = (
{
closed = 1;
nodes = (
(508,0,l),
(508,83,l),
(354,83,l),
(354,723,l),
(271,723,l),
(103,619,l),
(115,531,l),
(261,615,l),
(261,83,l),
(107,83,l),
(107,0,l)
);
}
);
width = 586;
},
{
layerId = "46716DA5-D33B-4776-83A4-F210AE3F70ED";
shapes = (
{
closed = 1;
nodes = (
(532,0,l),
(532,115,l),
(382,115,l),
(382,712,l),
(247,712,l),
(94,624,l),
(111,497,l),
(247,571,l),
(247,115,l),
(98,115,l),
(98,0,l)
);
}
);
width = 605;
}
);
unicode = 49;
}
{
glyphname = two;
layers = (
{
layerId = m01;
shapes = (
{
closed = 1;
nodes = (
(527,0,l),
(527,88,l),
(488,81,o),
(411,81,o),
(315,81,cs),
(190,81,l),
(297,172,o),
(493,356,o),
(493,520,cs),
(493,646,o),
(391,725,o),
(273,725,cs),
(191,725,o),
(101,685,o),
(61,630,c),
(83,547,l),
(126,600,o),
(196,637,o),
(256,637,cs),
(326,637,o),
(396,602,o),
(396,510,cs),
(396,375,o),
(191,178,o),
(59,83,c),
(59,0,l)
);
}
);
width = 586;
},
{
layerId = "46716DA5-D33B-4776-83A4-F210AE3F70ED";
shapes = (
{
closed = 1;
nodes = (
(543,0,l),
(543,127,l),
(504,120,o),
(471,120,o),
(375,120,cs),
(245,120,l),
(352,206,o),
(522,361,o),
(522,520,cs),
(522,646,o),
(426,725,o),
(285,725,cs),
(202,725,o),
(107,684,o),
(62,630,c),
(94,512,l),
(138,565,o),
(212,603,o),
(272,603,cs),
(347,603,o),
(381,553,o),
(381,495,cs),
(381,370,o),
(197,203,o),
(65,107,c),
(65,0,l)
);
}
);
width = 605;
}
);
unicode = 50;
}
{
glyphname = three;
layers = (
{
layerId = m01;
shapes = (
{
closed = 1;
nodes = (
(407,-12,o),
(532,83,o),
(532,198,cs),
(532,328,o),
(421,379,o),
(352,391,c),
(421,405,o),
(508,467,o),
(508,557,cs),
(508,661,o),
(404,725,o),
(283,725,c),
(202,725,o),
(127,691,o),
(88,647,c),
(105,564,l),
(160,621,o),
(213,640,o),
(288,640,cs),
(347,640,o),
(415,610,o),
(415,544,cs),
(415,484,o),
(332,425,o),
(234,425,c),
(200,425,l),
(200,342,l),
(234,342,l),
(350,342,o),
(437,287,o),
(437,208,cs),
(437,118,o),
(351,73,o),
(276,73,cs),
(188,73,o),
(119,113,o),
(66,173,c),
(54,68,l),
(105,21,o),
(180,-12,o),
(266,-12,cs)
);
}
);
width = 586;
},
{
layerId = "46716DA5-D33B-4776-83A4-F210AE3F70ED";
shapes = (
{
closed = 1;
nodes = (
(431,-12,o),
(551,83,o),
(551,198,cs),
(551,328,o),
(440,369,o),
(371,381,c),
(440,395,o),
(527,467,o),
(527,556,cs),
(527,661,o),
(428,725,o),
(288,725,cs),
(206,725,o),
(122,691,o),
(83,647,c),
(100,534,l),
(155,591,o),
(218,610,o),
(293,610,cs),
(341,610,o),
(391,582,o),
(391,538,cs),
(391,485,o),
(328,432,o),
(239,432,cs),
(195,432,l),
(195,315,l),
(239,315,ls),
(349,315,o),
(412,267,o),
(412,207,cs),
(412,142,o),
(350,102,o),
(281,102,cs),
(203,102,o),
(124,138,o),
(71,198,c),
(54,63,l),
(105,16,o),
(184,-12,o),
(271,-12,cs)
);
}
);
width = 605;
}
);
unicode = 51;
}
{
glyphname = four;
layers = (
{
layerId = m01;
shapes = (
{
closed = 1;
nodes = (
(457,0,l),
(457,193,l),
(549,193,l),
(549,269,l),
(457,269,l),
(457,723,l),
(364,723,l),
(44,269,l),
(44,193,l),
(364,193,l),
(364,0,l)
);
},
{
closed = 1;
nodes = (
(364,601,l),
(364,269,l),
(128,269,l)
);
}
);
width = 586;
},
{
layerId = "46716DA5-D33B-4776-83A4-F210AE3F70ED";
shapes = (
{
closed = 1;
nodes = (
(495,0,l),
(495,168,l),
(573,168,l),
(573,278,l),
(495,278,l),
(495,712,l),
(349,712,l),
(39,278,l),
(39,168,l),
(366,168,l),
(366,0,l)
);
},
{
closed = 1;
nodes = (
(366,559,l),
(366,278,l),
(159,278,l)
);
}
);
width = 605;
}
);
unicode = 52;
}
{
glyphname = five;
layers = (
{
layerId = m01;
shapes = (
{
closed = 1;
nodes = (
(406,-12,o),
(518,80,o),
(518,232,cs),
(518,362,o),
(406,454,o),
(266,454,cs),
(230,454,o),
(201,451,o),
(186,449,c),
(186,630,l),
(374,630,l),
(415,630,o),
(452,628,o),
(488,620,c),
(488,713,l),
(95,713,l),
(95,334,l),
(156,358,o),
(197,366,o),
(249,366,cs),
(327,366,o),
(425,328,o),
(425,229,cs),
(425,131,o),
(356,76,o),
(259,76,cs),
(190,76,o),
(144,89,o),
(78,142,c),
(63,39,l),
(125,1,o),
(177,-12,o),
(253,-12,cs)
);
}
);
width = 586;
},
{
layerId = "46716DA5-D33B-4776-83A4-F210AE3F70ED";
shapes = (
{
closed = 1;
nodes = (
(416,-12,o),
(542,80,o),
(542,232,cs),
(542,367,o),
(440,454,o),
(305,454,cs),
(275,454,o),
(238,445,o),
(222,437,c),
(222,593,l),
(383,593,ls),
(424,593,o),
(476,591,o),
(512,583,c),
(512,712,l),
(95,712,l),
(95,315,l),
(156,338,o),
(207,346,o),
(259,346,cs),
(337,346,o),
(405,308,o),
(405,229,cs),
(405,155,o),
(346,105,o),
(268,105,cs),
(200,105,o),
(143,123,o),
(78,176,c),
(59,39,l),
(120,1,o),
(188,-12,o),
(264,-12,cs)
);
}
);
width = 605;
}
);
unicode = 53;
}
{
glyphname = six;
layers = (
{
layerId = m01;
shapes = (
{
closed = 1;
nodes = (
(443,-12,o),
(544,81,o),
(544,229,cs),
(544,351,o),
(460,437,o),
(325,437,cs),
(231,437,o),
(160,381,o),
(105,305,c),
(137,269,l),
(177,319,o),
(239,352,o),
(315,352,cs),
(402,352,o),
(449,298,o),
(449,212,cs),
(449,134,o),
(394,73,o),
(308,73,cs),
(200,73,o),
(149,192,o),
(149,315,cs),
(149,553,o),
(233,640,o),
(349,640,cs),
(396,640,o),
(441,628,o),
(483,586,c),
(504,681,l),
(454,715,o),
(412,725,o),
(354,725,cs),
(122,725,o),
(54,512,o),
(54,332,cs),
(54,118,o),
(142,-12,o),
(293,-12,cs)
);
}
);
width = 586;
},
{
layerId = "46716DA5-D33B-4776-83A4-F210AE3F70ED";
shapes = (
{
closed = 1;
nodes = (
(471,-12,o),
(569,87,o),
(569,229,cs),
(569,356,o),
(475,451,o),
(334,451,cs),
(241,451,o),
(170,395,o),
(115,320,c),
(146,264,l),
(186,314,o),
(249,346,o),
(325,346,cs),
(402,346,o),
(444,293,o),
(444,222,cs),
(444,161,o),
(397,102,o),
(325,102,cs),
(236,102,o),
(178,188,o),
(178,315,cs),
(178,552,o),
(263,610,o),
(359,610,cs),
(406,610,o),
(455,598,o),
(497,556,c),
(529,681,l),
(478,715,o),
(431,725,o),
(364,725,cs),
(132,725,o),
(49,522,o),
(49,332,cs),
(49,109,o),
(150,-12,o),
(323,-12,cs)
);
}
);
width = 605;
}
);
unicode = 54;
}
{
glyphname = seven;
layers = (
{
layerId = m01;
shapes = (
{
closed = 1;
nodes = (
(225,0,l),
(288,224,o),
(388,437,o),
(532,635,c),
(532,713,l),
(49,713,l),
(49,623,l),
(86,630,o),
(143,632,o),
(234,632,cs),
(425,632,l),
(299,445,o),
(214,276,o),
(134,0,c)
);
}
);
width = 586;
},
{
layerId = "46716DA5-D33B-4776-83A4-F210AE3F70ED";
shapes = (
{
closed = 1;
nodes = (
(254,0,l),
(317,224,o),
(407,417,o),
(551,615,c),
(551,712,l),
(49,712,l),
(49,583,l),
(86,591,o),
(142,593,o),
(234,593,cs),
(390,593,l),
(264,411,o),
(200,276,o),
(115,0,c)
);
}
);
width = 605;
}
);
unicode = 55;
}
{
glyphname = eight;
layers = (
{
layerId = m01;
shapes = (
{
closed = 1;
nodes = (
(418,-12,o),
(542,65,o),
(542,198,cs),
(542,298,o),
(471,361,o),
(417,388,c),
(456,412,o),
(513,451,o),
(513,540,cs),
(513,659,o),
(410,725,o),
(298,725,cs),
(186,725,o),
(73,659,o),
(73,540,cs),
(73,451,o),
(133,409,o),
(171,388,c),
(108,354,o),
(44,298,o),
(44,198,cs),
(44,65,o),
(168,-12,o),
(293,-12,cs)
);
},
{
closed = 1;
nodes = (
(205,71,o),
(142,122,o),
(142,208,cs),
(142,289,o),
(205,347,o),
(293,347,cs),
(380,347,o),
(444,289,o),
(444,208,cs),
(444,122,o),
(380,71,o),
(293,71,cs)
);
},
{
closed = 1;
nodes = (
(223,422,o),
(166,463,o),
(166,540,cs),
(166,611,o),
(223,647,o),
(293,647,cs),
(363,647,o),
(420,611,o),
(420,540,cs),
(420,463,o),
(363,422,o),
(293,422,cs)
);
}
);
width = 586;
},
{
layerId = "46716DA5-D33B-4776-83A4-F210AE3F70ED";
shapes = (
{
closed = 1;
nodes = (
(438,-12,o),
(561,70,o),
(561,203,cs),
(561,313,o),
(490,361,o),
(437,388,c),
(475,410,o),
(527,450,o),
(527,539,cs),
(527,659,o),
(429,725,o),
(307,725,cs),
(186,725,o),
(78,659,o),
(78,539,cs),
(78,450,o),
(133,409,o),
(171,388,c),
(108,354,o),
(44,308,o),
(44,198,cs),
(44,65,o),
(168,-12,o),
(303,-12,cs)
);
},
{
closed = 1;
nodes = (
(224,100,o),
(173,156,o),
(173,217,cs),
(173,284,o),
(229,332,o),
(303,332,cs),
(375,332,o),
(432,284,o),
(432,217,cs),
(432,156,o),
(385,100,o),
(303,100,cs)
);
},
{
closed = 1;
nodes = (
(238,437,o),
(200,475,o),
(200,532,cs),
(200,584,o),
(243,620,o),
(303,620,cs),
(372,620,o),
(405,579,o),
(405,532,cs),
(405,475,o),
(367,437,o),
(303,437,cs)
);
}
);
width = 605;
}
);
unicode = 56;
}
{
glyphname = nine;
layers = (
{
layerId = m01;
shapes = (
{
closed = 1;
nodes = (
(477,-12,o),
(544,201,o),
(544,381,cs),
(544,585,o),
(452,725,o),
(301,725,cs),
(170,725,o),
(55,638,o),
(55,489,cs),
(55,377,o),
(137,286,o),
(273,286,cs),
(366,286,o),
(450,350,o),
(498,429,c),
(463,469,l),
(427,414,o),
(360,371,o),
(285,371,cs),
(207,371,o),
(149,420,o),
(149,506,cs),
(149,584,o),
(205,640,o),
(291,640,cs),
(409,640,o),
(449,520,o),
(449,397,cs),
(449,159,o),
(365,73,o),
(250,73,cs),
(203,73,o),
(158,85,o),
(116,127,c),
(94,32,l),
(145,-2,o),
(187,-12,o),
(245,-12,cs)
);
}
);
width = 586;
},
{
layerId = "46716DA5-D33B-4776-83A4-F210AE3F70ED";
shapes = (
{
closed = 1;
nodes = (
(474,-12,o),
(556,201,o),
(556,381,cs),
(556,561,o),
(479,725,o),
(290,725,cs),
(154,725,o),
(37,634,o),
(37,489,cs),
(37,372,o),
(135,281,o),
(271,281,cs),
(364,281,o),
(448,345,o),
(495,424,c),
(461,484,l),
(425,428,o),
(358,386,o),
(283,386,cs),
(210,386,o),
(162,434,o),
(162,506,cs),
(162,563,o),
(210,610,o),
(282,610,cs),
(380,610,o),
(427,538,o),
(427,397,cs),
(427,159,o),
(344,102,o),
(247,102,cs),
(201,102,o),
(146,114,o),
(104,156,c),
(78,32,l),
(123,2,o),
(180,-12,o),
(243,-12,cs)
);
}
);
width = 605;
}
);
unicode = 57;
}
{
glyphname = A;
layers = (
{
anchors = (
{
name = bottom;
pos = (341,0);
},
{
name = ogonek;
pos = (613,10);
},
{
name = top;
pos = (341,700);
}
);
layerId = m01;
shapes = (
{
closed = 1;
nodes = (
(120,0,l),
(185,188,l),
(485,188,l),
(552,0,l),
(652,0,l),
(635,39,o),
(616,83,o),
(583,173,cs),
(388,713,l),
(283,713,l),
(88,173,ls),
(55,82,o),
(37,40,o),
(20,0,c)
);
},
{
closed = 1;
nodes = (
(334,618,l),
(459,264,l),
(211,264,l)
);
}
);
width = 681;
},
{
anchors = (
{
name = bottom;
pos = (363,0);
},
{
name = ogonek;
pos = (653,10);
},
{
name = top;
pos = (363,700);
}
);
layerId = "46716DA5-D33B-4776-83A4-F210AE3F70ED";
shapes = (
{
closed = 1;
nodes = (
(171,0,l),
(224,173,l),
(490,173,l),
(544,0,l),
(687,0,l),
(670,39,o),
(654,82,o),
(624,173,cs),
(443,712,l),
(269,712,l),
(89,173,ls),
(58,81,o),
(43,40,o),
(25,0,c)
);
},
{
closed = 1;
nodes = (
(356,599,l),
(457,278,l),
(257,278,l)
);
}
);
width = 725;
}
);
unicode = 65;
}
{
glyphname = B;
layers = (
{
anchors = (
{
name = bottom;
pos = (314,0);
},
{
name = center;
pos = (157,214);
},
{
name = top;
pos = (314,700);
}
);
layerId = m01;
shapes = (
{
closed = 1;
nodes = (
(482,-5,o),
(557,86,o),
(557,205,cs),
(557,327,o),
(476,371,o),
(400,391,c),
(467,416,o),
(520,465,o),
(520,547,cs),
(520,674,o),
(438,718,o),
(293,718,cs),
(210,718,o),
(121,716,o),
(78,713,c),
(85,674,o),
(85,584,o),
(85,488,cs),
(85,222,l),
(85,125,o),
(85,39,o),
(78,0,c),
(104,-2,o),
(196,-5,o),
(295,-5,cs)
);
},
{
closed = 1;
nodes = (
(243,73,o),
(196,75,o),
(178,76,c),
(178,342,l),
(293,342,ls),
(407,342,o),
(461,295,o),
(461,205,cs),
(461,104,o),
(381,73,o),
(298,73,cs)
);
},
{
closed = 1;
nodes = (
(178,640,l),
(199,641,o),
(250,642,o),
(288,642,cs),
(386,642,o),
(425,605,o),
(425,532,cs),
(425,464,o),
(378,417,o),
(273,417,cs),
(178,417,l)
);
}
);
width = 627;
},
{
anchors = (
{
name = bottom;
pos = (338,0);
},
{
name = center;
pos = (169,214);
},
{
name = top;
pos = (338,700);
}
);
layerId = "46716DA5-D33B-4776-83A4-F210AE3F70ED";
shapes = (
{
closed = 1;
nodes = (
(515,-5,o),
(608,88,o),
(608,210,cs),
(608,328,o),
(529,371,o),
(456,390,c),
(520,415,o),
(571,462,o),
(571,542,cs),
(571,672,o),
(457,717,o),
(300,717,cs),
(206,717,o),
(121,715,o),
(73,712,c),
(81,673,o),
(81,584,o),
(81,488,cs),
(81,222,ls),
(81,125,o),
(81,39,o),
(73,0,c),
(97,-1,o),
(196,-5,o),
(308,-5,cs)
);
},
{
closed = 1;
nodes = (
(269,105,o),
(236,106,o),
(220,107,c),
(220,321,l),
(314,321,ls),
(416,321,o),
(474,286,o),
(474,220,cs),
(474,131,o),
(403,105,o),
(318,105,cs)
);
},
{
closed = 1;
nodes = (
(220,609,l),
(238,610,o),
(274,611,o),
(308,611,cs),
(399,611,o),
(438,584,o),
(438,526,cs),
(438,464,o),
(387,427,o),
(295,427,cs),
(220,427,l)
);
}
);
width = 676;
}
);
unicode = 66;
}
{
glyphname = C;
layers = (
{
anchors = (
{
name = bottom;
pos = (331,0);
},
{
name = top;
pos = (331,700);
}
);
layerId = m01;
shapes = (
{
closed = 1;
nodes = (
(440,-12,o),
(544,16,o),
(601,68,c),
(581,164,l),
(526,109,o),
(445,73,o),
(371,73,cs),
(239,73,o),
(142,184,o),
(142,359,cs),
(142,546,o),
(240,642,o),
(376,642,cs),
(435,642,o),
(503,624,o),
(564,569,c),
(593,657,l),
(523,709,o),
(446,725,o),
(376,725,cs),
(204,725,o),
(46,598,o),
(46,347,cs),
(46,127,o),
(169,-12,o),
(366,-12,cs)
);
}
);
width = 662;
},
{
anchors = (
{
name = bottom;
pos = (338,0);
},
{
name = top;
pos = (338,700);
}
);
layerId = "46716DA5-D33B-4776-83A4-F210AE3F70ED";
shapes = (
{
closed = 1;
nodes = (
(452,-12,o),
(557,20,o),
(617,68,c),
(593,198,l),
(539,143,o),
(459,107,o),
(386,107,cs),
(259,107,o),
(183,202,o),
(183,359,cs),
(183,524,o),
(272,608,o),
(390,608,cs),
(454,608,o),
(514,588,o),
(576,539,c),
(610,656,l),
(540,707,o),
(473,725,o),
(383,725,cs),
(202,725,o),
(44,598,o),
(44,346,cs),
(44,127,o),
(166,-12,o),
(368,-12,cs)
);
}
);
width = 676;
}
);
unicode = 67;
}
{
glyphname = D;
layers = (
{
anchors = (
{
name = bottom;
pos = (351,0);
},
{
name = center;
pos = (175,350);
},
{
name = top;
pos = (351,700);
}
);
layerId = m01;
shapes = (
{
closed = 1;
nodes = (
(434,-5,o),
(642,71,o),
(642,361,cs),
(642,681,o),
(405,718,o),
(300,718,cs),
(234,718,o),
(120,716,o),
(78,713,c),
(85,674,o),
(85,584,o),
(85,488,cs),
(85,222,l),
(85,125,o),
(85,39,o),
(78,0,c),
(78,0,o),
(228,-5,o),
(291,-5,cs)
);
},
{
closed = 1;
nodes = (
(239,76,o),
(201,79,o),
(178,81,c),
(178,637,l),
(203,638,o),
(256,640,o),
(288,640,cs),
(429,640,o),
(547,570,o),
(547,352,cs),
(547,150,o),
(417,76,o),
(286,76,cs)
);
}
);
width = 701;
},
{
anchors = (
{
name = bottom;
pos = (363,0);
},
{
name = center;
pos = (181,350);
},
{
name = top;
pos = (363,700);
}
);
layerId = "46716DA5-D33B-4776-83A4-F210AE3F70ED";
shapes = (
{
closed = 1;
nodes = (
(448,-5,o),
(669,71,o),
(669,361,cs),
(669,671,o),
(442,717,o),
(307,717,cs),
(238,717,o),
(117,715,o),
(73,712,c),
(81,673,o),
(81,584,o),
(81,488,cs),
(81,222,l),
(80,125,o),
(81,39,o),
(73,0,c),
(73,0,o),
(231,-5,o),
(297,-5,cs)
);
},
{
closed = 1;
nodes = (
(270,108,o),
(239,111,o),
(220,113,c),
(220,606,l),
(240,607,o),
(284,608,o),
(311,608,cs),
(438,608,o),
(531,546,o),
(531,351,cs),
(531,174,o),
(418,108,o),
(309,108,cs)
);
}
);
width = 725;
}
);
unicode = 68;
}
{
glyphname = E;
layers = (
{
anchors = (
{
name = bottom;
pos = (283,0);
},
{
name = ogonek;
pos = (509,10);
},
{
name = top;
pos = (283,700);
},
{
name = topleft;
pos = (20,700);
}
);
layerId = m01;
shapes = (
{
closed = 1;
nodes = (
(508,0,l),
(508,88,l),
(469,81,o),
(403,81,o),
(307,81,cs),
(178,81,l),
(178,334,l),
(457,334,l),
(457,413,l),
(178,413,l),
(178,632,l),
(493,632,l),
(493,713,l),
(78,713,l),
(85,674,o),
(85,597,o),
(85,500,cs),
(85,212,ls),
(85,116,o),
(85,39,o),
(78,0,c)
);
}
);
width = 566;
},
{
anchors = (
{
name = bottom;
pos = (296,0);
},
{
name = ogonek;
pos = (532,10);
},
{
name = top;
pos = (296,700);
},
{
name = topleft;
pos = (20,700);
}
);
layerId = "46716DA5-D33B-4776-83A4-F210AE3F70ED";
shapes = (
{
closed = 1;
nodes = (
(538,0,l),
(538,120,l),
(500,113,o),
(439,112,o),
(346,112,cs),
(220,112,l),
(220,317,l),
(487,317,l),
(487,427,l),
(220,427,l),
(220,600,l),
(523,600,l),
(523,712,l),
(73,712,l),
(81,673,o),
(81,596,o),
(81,500,cs),
(81,212,ls),
(81,116,o),
(81,39,o),
(73,0,c)
);
}
);
width = 591;
}
);
unicode = 69;
}
{
glyphname = F;
layers = (
{
anchors = (
{
name = bottom;
pos = (281,0);
},
{
name = top;
pos = (281,700);
}
);
layerId = m01;
shapes = (
{
closed = 1;
nodes = (
(186,0,l),
(178,38,o),
(178,116,o),
(178,212,cs),
(178,330,l),
(461,330,l),
(461,408,l),
(178,408,l),
(178,632,l),
(503,632,l),
(503,713,l),
(78,713,l),
(85,674,o),
(85,594,o),
(85,498,cs),
(85,212,ls),
(85,116,o),
(85,39,o),
(78,0,c)
);
}
);
width = 562;
},
{
anchors = (
{
name = bottom;
pos = (293,0);
},
{
name = top;
pos = (293,700);
}
);
layerId = "46716DA5-D33B-4776-83A4-F210AE3F70ED";
shapes = (
{
closed = 1;
nodes = (
(227,0,l),
(220,36,o),
(220,108,o),
(220,199,cs),
(220,310,l),
(490,310,l),
(490,420,l),
(220,420,l),
(220,600,l),
(532,600,l),
(532,712,l),
(73,712,l),
(81,673,o),
(81,594,o),
(81,498,cs),
(81,212,ls),
(81,116,o),
(81,39,o),
(73,0,c)
);
}
);
width = 586;
}
);
unicode = 70;
}
{
glyphname = G;
layers = (
{
anchors = (
{
name = bottom;
pos = (347,0);
},
{
name = top;
pos = (347,700);
}
);
layerId = m01;
shapes = (
{
closed = 1;
nodes = (
(448,-12,o),
(522,5,o),
(623,76,c),
(623,364,l),
(359,364,l),
(359,283,l),
(530,283,l),
(530,120,l),
(470,83,o),
(428,73,o),
(370,73,cs),
(230,73,o),
(142,184,o),
(142,364,cs),
(142,534,o),
(234,642,o),
(383,642,cs),
(448,642,o),
(511,628,o),
(583,569,c),
(615,657,l),
(530,714,o),
(462,725,o),
(383,725,cs),
(196,725,o),
(46,585,o),
(46,352,cs),
(46,118,o),
(179,-12,o),
(364,-12,cs)
);
}
);
width = 693;
},
{
anchors = (
{
name = bottom;
pos = (359,0);
},
{
name = top;
pos = (359,700);
}
);
layerId = "46716DA5-D33B-4776-83A4-F210AE3F70ED";
shapes = (
{
closed = 1;
nodes = (
(468,-12,o),
(547,5,o),
(652,76,c),
(652,383,l),
(374,383,l),
(374,273,l),
(528,273,l),
(528,143,l),
(471,115,o),
(431,107,o),
(375,107,cs),
(260,107,o),
(183,205,o),
(183,364,cs),
(183,511,o),
(266,608,o),
(395,608,cs),
(465,608,o),
(535,588,o),
(603,540,c),
(645,656,l),
(555,713,o),
(483,725,o),
(399,725,cs),
(197,725,o),
(44,585,o),
(44,351,cs),
(44,118,o),
(184,-12,o),
(379,-12,cs)
);
}
);
width = 718;
}
);
unicode = 71;
}
{
glyphname = H;
layers = (
{
anchors = (
{
name = bottom;
pos = (360,0);
},
{
name = center;
pos = (360,570);
},
{
name = top;
pos = (360,700);
},
{
name = topleft;
pos = (20,700);
}
);
layerId = m01;
shapes = (
{
closed = 1;
nodes = (
(178,0,l),
(178,330,l),
(530,330,l),
(530,0,l),
(630,0,l),
(623,39,o),
(623,116,o),
(623,212,cs),
(623,500,ls),
(623,597,o),
(623,674,o),
(630,713,c),
(530,713,l),
(530,408,l),
(178,408,l),
(178,713,l),
(78,713,l),
(85,674,o),
(85,597,o),
(85,500,cs),
(85,212,ls),
(85,116,o),
(85,39,o),
(78,0,c)
);
}
);
width = 720;
},
{
anchors = (
{
name = bottom;
pos = (370,0);
},
{
name = center;
pos = (370,570);
},
{
name = top;
pos = (370,700);
},
{
name = topleft;
pos = (20,700);
}
);
layerId = "46716DA5-D33B-4776-83A4-F210AE3F70ED";
shapes = (
{
closed = 1;
nodes = (
(220,0,l),
(220,310,l),
(508,310,l),
(508,0,l),
(654,0,l),
(647,39,o),
(647,114,o),
(647,210,cs),
(647,503,ls),
(647,599,o),
(647,673,o),
(654,712,c),
(508,712,l),
(508,420,l),
(220,420,l),
(220,712,l),
(73,712,l),
(81,673,o),
(81,599,o),
(81,503,cs),
(81,210,ls),
(81,114,o),
(81,39,o),
(73,0,c)
);
}
);
width = 739;
}
);
unicode = 72;
}
{
glyphname = I;
layers = (
{
anchors = (
{
name = bottom;
pos = (238,0);
},
{
name = ogonek;
pos = (428,10);
},
{
name = top;
pos = (238,700);
},
{
name = topleft;
pos = (20,700);
}
);
layerId = m01;
shapes = (
{
closed = 1;
nodes = (
(398,0,l),
(398,71,l),
(278,71,l),
(278,642,l),
(398,642,l),
(398,713,l),
(68,713,l),
(68,642,l),
(186,642,l),
(186,71,l),
(68,71,l),
(68,0,l)
);
}
);
width = 476;
},
{
anchors = (
{
name = bottom;
pos = (255,0);
},
{
name = ogonek;
pos = (459,10);
},
{
name = top;
pos = (255,700);
},
{
name = topleft;
pos = (20,700);
}
);
layerId = "46716DA5-D33B-4776-83A4-F210AE3F70ED";
shapes = (
{
closed = 1;
nodes = (
(437,0,l),
(437,100,l),
(320,100,l),
(320,612,l),
(437,612,l),
(437,712,l),
(63,712,l),
(63,612,l),
(181,612,l),
(181,100,l),
(63,100,l),
(63,0,l)
);
}
);
width = 510;
}
);
unicode = 73;
}
{
glyphname = J;
layers = (
{
anchors = (
{
name = bottom;
pos = (236,0);
},
{
name = top;
pos = (236,700);
}
);
layerId = m01;
shapes = (
{
closed = 1;
nodes = (
(294,-12,o),
(381,58,o),
(381,261,cs),
(381,412,o),
(381,563,o),
(381,713,c),
(281,713,l),
(287,661,o),
(288,574,o),
(288,479,cs),
(288,237,ls),
(288,125,o),
(238,76,o),
(166,76,cs),
(121,76,o),
(72,97,o),
(39,134,c),
(17,44,l),
(52,4,o),
(122,-12,o),
(168,-12,cs)
);
}
);
width = 471;
},
{
anchors = (
{
name = bottom;
pos = (252,0);
},
{
name = top;
pos = (252,700);
}
);
layerId = "46716DA5-D33B-4776-83A4-F210AE3F70ED";
shapes = (
{
closed = 1;
nodes = (
(321,-12,o),
(417,63,o),
(417,261,cs),
(417,291,o),
(417,536,o),
(417,712,c),
(271,712,l),
(277,661,o),
(278,573,o),
(278,478,cs),
(278,272,ls),
(278,187,o),
(264,111,o),
(178,111,cs),
(129,111,o),
(75,132,o),
(39,169,c),
(15,44,l),
(53,4,o),
(126,-12,o),
(177,-12,cs)
);
}
);
width = 503;
}
);
unicode = 74;
}
{
glyphname = K;
layers = (
{
anchors = (
{
name = bottom;
pos = (320,0);
},
{
name = top;
pos = (320,700);
}
);
layerId = m01;
shapes = (
{
closed = 1;
nodes = (
(601,0,l),
(237,420,l),
(171,359,l),
(481,0,l)
);
},
{
closed = 1;
nodes = (
(178,0,l),
(178,713,l),
(78,713,l),
(85,674,o),
(85,597,o),
(85,500,cs),
(85,212,ls),
(85,116,o),
(85,39,o),
(78,0,c)
);
},
{
closed = 1;
nodes = (
(208,364,l),
(259,361,l),
(569,713,l),
(452,713,l),
(144,343,l)
);
}
);
width = 640;
},
{
anchors = (
{
name = bottom;
pos = (349,0);
},
{
name = top;
pos = (349,700);
}
);
layerId = "46716DA5-D33B-4776-83A4-F210AE3F70ED";
shapes = (
{
closed = 1;
nodes = (
(664,0,l),
(300,405,l),
(190,357,l),
(483,0,l)
);
},
{
closed = 1;
nodes = (
(220,0,l),
(220,712,l),
(73,712,l),
(81,673,o),
(81,596,o),
(81,500,cs),
(81,212,ls),
(81,116,o),
(81,39,o),
(73,0,c)
);
},
{
closed = 1;
nodes = (
(248,351,l),
(283,330,l),
(625,712,l),
(461,712,l),
(181,357,l)
);
}
);
width = 698;
}
);
unicode = 75;
}
{
glyphname = L;
layers = (
{
anchors = (
{
name = bottom;
pos = (264,0);
},
{
name = center;
pos = (264,350);
},
{
name = top;
pos = (264,700);
},
{
name = topright;
pos = (507,700);
}
);
layerId = m01;
shapes = (
{
closed = 1;
nodes = (
(500,0,l),
(500,88,l),
(461,81,o),
(384,81,o),
(288,81,cs),
(178,81,l),
(178,713,l),
(78,713,l),
(85,674,o),
(85,597,o),
(85,500,cs),
(85,212,ls),
(85,116,o),
(85,39,o),
(78,0,c)
);
}
);
width = 527;
},
{
anchors = (
{
name = bottom;
pos = (276,0);
},
{
name = center;
pos = (276,350);
},
{
name = top;
pos = (276,700);
},
{
name = topright;
pos = (531,700);
}
);
layerId = "46716DA5-D33B-4776-83A4-F210AE3F70ED";
shapes = (
{
closed = 1;
nodes = (
(529,0,l),
(529,120,l),
(492,113,o),
(417,112,o),
(325,112,cs),
(220,112,l),
(220,712,l),
(73,712,l),
(81,673,o),
(81,596,o),
(81,500,cs),
(81,212,ls),
(81,116,o),
(81,39,o),
(73,0,c)
);
}
);
width = 551;
}
);
unicode = 76;
}
{
glyphname = M;
layers = (
{
anchors = (
{
name = bottom;
pos = (438,0);
},
{
name = top;
pos = (438,700);
}
);
layerId = m01;
shapes = (
{
closed = 1;
nodes = (
(481,0,l),
(686,597,l),
(726,713,l),
(645,713,l),
(432,100,l),
(222,713,l),
(139,713,l),
(181,597,l),
(386,0,l)
);
},
{
closed = 1;
nodes = (
(168,0,l),
(184,588,l),
(198,713,l),
(112,713,l),
(112,713,o),
(91,97,o),
(78,0,c)
);
},
{
closed = 1;
nodes = (
(786,0,l),
(776,71,o),
(761,448,o),
(752,713,c),
(667,713,l),
(682,588,l),
(696,0,l)
);
}
);
width = 876;
},
{
anchors = (
{
name = bottom;
pos = (453,0);
},
{
name = top;
pos = (453,700);
}
);
layerId = "46716DA5-D33B-4776-83A4-F210AE3F70ED";
shapes = (
{
closed = 1;
nodes = (
(520,0,l),
(682,571,l),
(740,712,l),
(615,712,l),
(447,134,l),
(281,712,l),
(154,712,l),
(213,571,l),
(376,0,l)
);
},
{
closed = 1;
nodes = (
(205,0,l),
(219,588,l),
(237,712,l),
(107,712,l),
(107,712,o),
(86,97,o),
(73,0,c)
);
},
{
closed = 1;
nodes = (
(820,0,l),
(810,71,o),
(794,447,o),
(786,712,c),
(654,712,l),
(676,588,l),
(688,0,l)
);
}
);
width = 905;
}
);
unicode = 77;
}
{
glyphname = N;
layers = (
{
anchors = (
{
name = bottom;
pos = (366,0);
},
{
name = top;
pos = (366,700);
}
);
layerId = m01;
shapes = (
{
closed = 1;
nodes = (
(623,49,l),
(166,713,l),
(98,662,l),
(554,0,l)
);
},
{
closed = 1;
nodes = (
(166,0,l),
(166,713,l),
(78,713,l),
(85,674,o),
(85,597,o),
(85,500,cs),
(85,212,ls),
(85,116,o),
(85,39,o),
(78,0,c)
);
},
{
closed = 1;
nodes = (
(635,0,l),
(635,500,ls),
(635,597,o),
(635,674,o),
(642,713,c),
(554,713,l),
(554,0,l)
);
}
);
width = 732;
},
{
anchors = (
{
name = bottom;
pos = (377,0);
},
{
name = top;
pos = (377,700);
}
);
layerId = "46716DA5-D33B-4776-83A4-F210AE3F70ED";
shapes = (
{
closed = 1;
nodes = (
(633,73,l),
(207,712,l),
(109,639,l),
(534,0,l)
);
},
{
closed = 1;
nodes = (
(207,0,l),
(207,712,l),
(73,712,l),
(81,673,o),
(81,596,o),
(81,500,cs),
(81,212,ls),
(81,116,o),
(81,39,o),
(73,0,c)
);
},
{
closed = 1;
nodes = (
(661,0,l),
(661,500,ls),
(661,596,o),
(662,673,o),
(669,712,c),
(534,712,l),
(534,0,l)
);
}
);
width = 754;
}
);
unicode = 78;
}
{
glyphname = O;
layers = (
{
anchors = (
{
name = bottom;
pos = (357,0);
},
{
name = center;
pos = (357,350);
},
{
name = ogonek;
pos = (642,10);
},
{
name = top;
pos = (357,700);
},
{
name = topleft;
pos = (20,700);
},
{
name = topright;
pos = (693,700);
}
);
layerId = m01;
shapes = (
{
closed = 1;
nodes = (
(502,-12,o),
(654,127,o),
(654,361,cs),
(654,595,o),
(512,725,o),
(356,725,cs),
(199,725,o),
(46,585,o),
(46,352,cs),
(46,118,o),
(189,-12,o),
(347,-12,cs)
);
},
{
closed = 1;
nodes = (
(225,73,o),
(142,186,o),
(142,364,cs),
(142,533,o),
(228,640,o),
(352,640,cs),
(476,640,o),
(559,529,o),
(559,349,cs),
(559,176,o),
(471,73,o),
(352,73,cs)
);
}
);
width = 713;
},
{
anchors = (
{
name = bottom;
pos = (366,0);
},
{
name = center;
pos = (366,350);
},
{
name = ogonek;
pos = (659,10);
},
{
name = top;
pos = (366,700);
},
{
name = topleft;
pos = (20,700);
},
{
name = topright;
pos = (712,700);
}
);
layerId = "46716DA5-D33B-4776-83A4-F210AE3F70ED";
shapes = (
{
closed = 1;
nodes = (
(523,-12,o),
(676,127,o),
(676,361,cs),
(676,595,o),
(532,725,o),
(366,725,cs),
(197,725,o),
(44,585,o),
(44,351,cs),
(44,118,o),
(188,-12,o),
(356,-12,cs)
);
},
{
closed = 1;
nodes = (
(256,107,o),
(183,206,o),
(183,364,cs),
(183,511,o),
(258,605,o),
(361,605,cs),
(464,605,o),
(537,508,o),
(537,349,cs),
(537,197,o),
(459,107,o),
(361,107,cs)
);
}
);
width = 732;
}
);
unicode = 79;
}
{
glyphname = P;
layers = (
{
anchors = (
{
name = bottom;
pos = (292,0);
},
{
name = top;
pos = (292,700);
}
);
layerId = m01;
shapes = (
{
closed = 1;
nodes = (
(186,0,l),
(179,38,o),
(178,116,o),
(178,212,cs),
(178,276,l),
(210,272,o),
(250,271,o),
(286,271,cs),
(446,271,o),
(544,359,o),
(544,503,cs),
(544,646,o),
(443,718,o),
(286,718,cs),
(182,718,o),
(78,713,o),
(78,713,c),
(85,674,o),
(85,584,o),
(85,488,c),
(85,212,ls),
(85,116,o),
(85,39,o),
(78,0,c)
);
},
{
closed = 1;
nodes = (
(242,347,o),
(209,348,o),
(178,352,c),
(178,637,l),
(211,639,o),
(235,640,o),
(281,640,cs),
(411,640,o),
(452,571,o),
(452,493,cs),
(452,415,o),
(415,347,o),
(278,347,cs)
);
}
);
width = 583;
},
{
anchors = (
{
name = bottom;
pos = (311,0);
},
{
name = top;
pos = (311,700);
}
);
layerId = "46716DA5-D33B-4776-83A4-F210AE3F70ED";
shapes = (
{
closed = 1;
nodes = (
(227,0,l),
(220,38,o),
(220,116,o),
(220,212,cs),
(220,255,l),
(251,252,o),
(281,250,o),
(316,250,cs),
(477,250,o),
(586,343,o),
(586,493,cs),
(586,642,o),
(479,717,o),
(321,717,cs),
(217,717,o),
(73,712,o),
(73,712,c),
(81,673,o),
(81,584,o),
(81,488,cs),
(81,212,ls),
(81,116,o),
(81,39,o),
(73,0,c)
);
},
{
closed = 1;
nodes = (
(271,356,o),
(241,358,o),
(220,361,c),
(220,605,l),
(247,607,o),
(265,608,o),
(304,608,cs),
(407,608,o),
(447,559,o),
(447,488,cs),
(447,400,o),
(396,356,o),
(302,356,cs)
);
}
);
width = 622;
}
);
unicode = 80;
}
{
glyphname = Q;
layers = (
{
anchors = (
{
name = bottom;
pos = (360,0);
},
{
name = top;
pos = (360,700);
}
);
layerId = m01;
shapes = (
{
closed = 1;
nodes = (
(671,-93,o),
(701,-40,o),
(710,-22,c),
(645,-14,o),
(588,14,o),
(527,51,c),
(613,115,o),
(654,234,o),
(654,361,cs),
(654,595,o),
(514,725,o),
(356,725,cs),
(199,725,o),
(46,585,o),
(46,352,cs),
(46,118,o),
(187,-12,o),
(344,-12,cs),
(375,-12,o),
(399,-9,o),
(427,0,c),
(461,0,o),
(604,-93,o),
(645,-93,cs)
);
},
{
closed = 1;
nodes = (
(225,73,o),
(142,186,o),
(142,364,cs),
(142,533,o),
(228,640,o),
(352,640,cs),
(476,640,o),
(559,529,o),
(559,349,cs),
(559,176,o),
(471,73,o),
(352,73,cs)
);
}
);
width = 720;
},
{
anchors = (
{
name = bottom;
pos = (377,0);
},
{
name = top;
pos = (377,700);
}
);
layerId = "46716DA5-D33B-4776-83A4-F210AE3F70ED";
shapes = (
{
closed = 1;
nodes = (
(690,-111,o),
(737,-33,o),
(749,-7,c),
(680,0,o),
(599,43,o),
(559,69,c),
(631,138,o),
(676,230,o),
(676,361,cs),
(676,595,o),
(532,725,o),
(366,725,cs),
(197,725,o),
(44,585,o),
(44,351,cs),
(44,118,o),
(188,-12,o),
(356,-12,cs),
(394,-12,o),
(410,-11,o),
(434,-7,c),
(468,-7,o),
(618,-111,o),
(659,-111,cs)
);
},
{
closed = 1;
nodes = (
(256,107,o),
(183,206,o),
(183,364,cs),
(183,511,o),
(258,605,o),
(361,605,cs),
(464,605,o),
(537,508,o),
(537,349,cs),
(537,197,o),
(460,107,o),
(361,107,cs)
);
}
);
width = 754;
}
);
unicode = 81;
}
{
glyphname = R;
layers = (
{
anchors = (
{
name = bottom;
pos = (319,0);
},
{
name = top;
pos = (319,700);
}
);
layerId = m01;
shapes = (
{
closed = 1;
nodes = (
(186,0,l),
(179,38,o),
(178,116,o),
(178,212,c),
(178,305,l),
(303,305,l),
(393,305,o),
(532,363,o),
(532,518,cs),
(532,659,o),
(428,718,o),
(276,718,cs),
(162,718,o),
(78,713,o),
(78,713,c),
(85,674,o),
(85,584,o),
(85,488,cs),
(85,212,l),
(85,116,o),
(85,39,o),
(78,0,c)
);
},
{
closed = 1;
nodes = (
(608,0,l),
(575,36,o),
(349,347,o),
(349,347,c),
(274,310,l),
(483,0,l)
);
},
{
closed = 1;
nodes = (
(178,637,l),
(204,638,o),
(237,640,o),
(271,640,cs),
(391,640,o),
(439,594,o),
(439,510,cs),
(439,429,o),
(381,381,o),
(271,381,c),
(178,381,l)
);
}
);
width = 637;
},
{
anchors = (
{
name = bottom;
pos = (337,0);
},
{
name = top;
pos = (337,700);
}
);
layerId = "46716DA5-D33B-4776-83A4-F210AE3F70ED";
shapes = (
{
closed = 1;
nodes = (
(227,0,l),
(220,38,o),
(220,116,o),
(220,212,cs),
(220,285,l),
(305,285,ls),
(444,285,o),
(573,353,o),
(573,508,cs),
(573,649,o),
(469,717,o),
(317,717,cs),
(203,717,o),
(73,712,o),
(73,712,c),
(81,673,o),
(81,584,o),
(81,488,cs),
(81,212,ls),
(81,116,o),
(81,39,o),
(73,0,c)
);
},
{
closed = 1;
nodes = (
(649,0,l),
(616,36,o),
(404,335,o),
(404,335,c),
(271,310,l),
(476,0,l)
);
},
{
closed = 1;
nodes = (
(220,605,l),
(245,607,o),
(262,608,o),
(300,608,cs),
(386,608,o),
(434,579,o),
(434,505,cs),
(434,419,o),
(381,390,o),
(295,390,cs),
(220,390,l)
);
}
);
width = 673;
}
);
unicode = 82;
}
{
glyphname = S;
layers = (
{
anchors = (
{
name = bottom;
pos = (287,0);
},
{
name = top;
pos = (287,700);
}
);
layerId = m01;
shapes = (
{
closed = 1;
nodes = (
(409,-12,o),
(520,77,o),
(520,208,cs),
(520,313,o),
(449,372,o),
(320,410,cs),
(181,451,o),
(159,481,o),
(159,535,cs),
(159,588,o),
(212,640,o),
(291,640,cs),
(353,640,o),
(399,625,o),
(469,586,c),
(488,681,l),
(425,712,o),
(371,725,o),
(295,725,cs),
(133,725,o),
(66,610,o),
(66,527,cs),
(66,444,o),
(99,380,o),
(251,334,cs),
(404,289,o),
(427,249,o),
(427,198,cs),
(427,119,o),
(354,73,o),
(276,73,cs),
(204,73,o),
(133,98,o),
(68,154,c),
(46,54,l),
(96,15,o),
(182,-12,o),
(276,-12,cs)
);
}
);
width = 574;
},
{
anchors = (
{
name = bottom;
pos = (304,0);
},
{
name = top;
pos = (304,700);
}
);
layerId = "46716DA5-D33B-4776-83A4-F210AE3F70ED";
shapes = (
{
closed = 1;
nodes = (
(437,-12,o),
(555,82,o),
(555,222,cs),
(555,325,o),
(485,384,o),
(355,425,cs),
(226,465,o),
(203,485,o),
(203,527,cs),
(203,567,o),
(247,608,o),
(307,608,cs),
(376,608,o),
(426,590,o),
(503,551,c),
(525,681,l),
(455,712,o),
(395,725,o),
(312,725,cs),
(137,725,o),
(63,605,o),
(63,517,cs),
(63,430,o),
(96,368,o),
(249,320,cs),
(390,275,o),
(415,246,o),
(415,205,cs),
(415,143,o),
(356,107,o),
(293,107,cs),
(214,107,o),
(138,132,o),
(68,188,c),
(44,54,l),
(98,15,o),
(191,-12,o),
(293,-12,cs)
);
}
);
width = 607;
}
);
unicode = 83;
}
{
glyphname = T;
layers = (
{
anchors = (
{
name = bottom;
pos = (309,0);
},
{
name = center;
pos = (309,350);
},
{
name = top;
pos = (309,700);
}
);
layerId = m01;
shapes = (
{
closed = 1;
nodes = (
(359,0,l),
(351,39,o),
(349,116,o),
(349,212,cs),
(349,632,l),
(466,632,ls),
(510,632,o),
(547,631,o),
(586,623,c),
(586,713,l),
(22,713,l),
(22,623,l),
(61,631,o),
(98,632,o),
(142,632,cs),
(256,632,l),
(256,212,ls),
(256,116,o),
(255,39,o),
(247,0,c)
);
}
);
width = 618;
},
{
anchors = (
{
name = bottom;
pos = (309,0);
},
{
name = center;
pos = (309,350);
},
{
name = top;
pos = (309,700);
}
);
layerId = "46716DA5-D33B-4776-83A4-F210AE3F70ED";
shapes = (
{
closed = 1;
nodes = (
(382,0,l),
(374,37,o),
(372,110,o),
(372,202,cs),
(372,600,l),
(478,600,ls),
(518,600,o),
(555,599,o),
(590,590,c),
(590,712,l),
(17,712,l),
(17,590,l),
(52,599,o),
(90,600,o),
(129,600,cs),
(233,600,l),
(233,202,ls),
(233,110,o),
(232,37,o),
(224,0,c)
);
}
);
width = 617;
}
);
unicode = 84;
}
{
glyphname = U;
layers = (
{
anchors = (
{
name = bottom;
pos = (352,0);
},
{
name = ogonek;
pos = (633,10);
},
{
name = top;
pos = (352,700);
},
{
name = topright;
pos = (683,700);
}
);
layerId = m01;
shapes = (
{
closed = 1;
nodes = (
(523,-12,o),
(605,93,o),
(605,251,c),
(605,500,ls),
(605,602,o),
(606,674,o),
(613,713,c),
(513,713,l),
(513,273,ls),
(513,146,o),
(473,66,o),
(347,66,cs),
(218,66,o),
(178,146,o),
(178,273,cs),
(178,713,l),
(78,713,l),
(85,674,o),
(85,597,o),
(85,500,cs),
(85,251,l),
(85,93,o),
(168,-12,o),
(347,-12,cs)
);
}
);
width = 703;
},
{
anchors = (
{
name = bottom;
pos = (364,0);
},
{
name = ogonek;
pos = (654,10);
},
{
name = top;
pos = (364,700);
},
{
name = topright;
pos = (707,700);
}
);
layerId = "46716DA5-D33B-4776-83A4-F210AE3F70ED";
shapes = (
{
closed = 1;
nodes = (
(542,-12,o),
(634,93,o),
(634,251,cs),
(634,500,ls),
(634,601,o),
(635,673,o),
(642,712,c),
(495,712,l),
(495,273,ls),
(495,168,o),
(465,100,o),
(359,100,cs),
(250,100,o),
(220,168,o),
(220,273,cs),
(220,712,l),
(73,712,l),
(80,673,o),
(81,596,o),
(81,500,cs),
(81,251,ls),
(81,93,o),
(174,-12,o),
(359,-12,cs)
);
}
);
width = 727;
}
);
unicode = 85;
}
{
glyphname = V;
layers = (
{
anchors = (
{
name = bottom;
pos = (334,0);
},
{
name = top;
pos = (334,700);
}
);
layerId = m01;
shapes = (
{
closed = 1;
nodes = (
(383,0,l),
(571,535,ls),
(604,629,o),
(622,673,o),
(640,713,c),
(535,713,l),
(328,95,l),
(122,713,l),
(17,713,l),
(33,673,o),
(49,629,o),
(83,535,cs),
(273,0,l)
);
}
);
width = 667;
},
{
anchors = (
{
name = bottom;
pos = (358,0);
},
{
name = top;
pos = (358,700);
}
);
layerId = "46716DA5-D33B-4776-83A4-F210AE3F70ED";
shapes = (
{
closed = 1;
nodes = (
(434,0,l),
(625,534,ls),
(658,629,o),
(675,672,o),
(693,712,c),
(544,712,l),
(352,127,l),
(161,712,l),
(12,712,l),
(28,672,o),
(47,629,o),
(81,534,cs),
(271,0,l)
);
}
);
width = 715;
}
);
unicode = 86;
}
{
glyphname = W;
layers = (
{
anchors = (
{
name = bottom;
pos = (508,0);
},
{
name = top;
pos = (508,700);
}
);
layerId = m01;
shapes = (
{
closed = 1;
nodes = (
(779,0,l),
(928,535,ls),
(954,629,o),
(968,673,o),
(984,713,c),
(876,713,l),
(718,63,l),
(723,0,l)
);
},
{
closed = 1;
nodes = (
(723,0,l),
(732,63,l),
(547,713,l),
(457,713,l),
(483,637,l),
(669,0,l)
);
},
{
closed = 1;
nodes = (
(334,0,l),
(520,637,l),
(547,713,l),
(457,713,l),
(273,63,l),
(283,0,l)
);
},
{
closed = 1;
nodes = (
(283,0,l),
(288,63,l),
(127,713,l),
(20,713,l),
(35,674,o),
(50,628,o),
(76,535,cs),
(225,0,l)
);
}
);
width = 1016;
},
{
anchors = (
{
name = bottom;
pos = (521,0);
},
{
name = top;
pos = (521,700);
}
);
layerId = "46716DA5-D33B-4776-83A4-F210AE3F70ED";
shapes = (
{
closed = 1;
nodes = (
(808,0,l),
(959,534,ls),
(986,629,o),
(999,672,o),
(1015,712,c),
(864,712,l),
(717,63,l),
(727,0,l)
);
},
{
closed = 1;
nodes = (
(737,0,l),
(747,63,l),
(576,712,l),
(449,712,l),
(486,637,l),
(654,0,l)
);
},
{
closed = 1;
nodes = (
(373,0,l),
(539,637,l),
(576,712,l),
(449,712,l),
(283,63,l),
(293,0,l)
);
},
{
closed = 1;
nodes = (
(303,0,l),
(312,63,l),
(166,712,l),
(15,712,l),
(30,674,o),
(45,628,o),
(71,534,cs),
(220,0,l)
);
}
);
width = 1042;
}
);
unicode = 87;
}
{
glyphname = X;
layers = (
{
anchors = (
{
name = bottom;
pos = (324,0);
},
{
name = top;
pos = (324,700);
}
);
layerId = m01;
shapes = (
{
closed = 1;
nodes = (
(615,0,l),
(585,40,o),
(569,62,o),
(504,164,cs),
(159,713,l),
(44,713,l),
(75,672,o),
(98,642,o),
(161,542,cs),
(503,0,l)
);
},
{
closed = 1;
nodes = (
(132,0,l),
(321,312,l),
(270,394,l),
(129,166,ls),
(66,64,o),
(50,42,o),
(20,0,c)
);
},
{
closed = 1;
nodes = (
(475,542,ls),
(536,641,o),
(561,675,o),
(591,713,c),
(476,713,l),
(312,441,l),
(363,360,l)
);
}
);
width = 647;
},
{
anchors = (
{
name = bottom;
pos = (333,0);
},
{
name = top;
pos = (333,700);
}
);
layerId = "46716DA5-D33B-4776-83A4-F210AE3F70ED";
shapes = (
{
closed = 1;
nodes = (
(639,0,l),
(610,40,o),
(591,61,o),
(529,164,cs),
(195,712,l),
(37,712,l),
(68,671,o),
(92,643,o),
(154,542,cs),
(483,0,l)
);
},
{
closed = 1;
nodes = (
(171,0,l),
(342,297,l),
(295,462,l),
(124,166,ls),
(65,62,o),
(45,42,o),
(15,0,c)
);
},
{
closed = 1;
nodes = (
(508,542,ls),
(563,637,o),
(591,675,o),
(622,712,c),
(464,712,l),
(320,462,l),
(366,297,l)
);
}
);
width = 666;
}
);
unicode = 88;
}
{
glyphname = Y;
layers = (
{
anchors = (
{
name = bottom;
pos = (323,0);
},
{
name = top;
pos = (323,700);
},
{
name = topleft;
pos = (20,700);
}
);
layerId = m01;
shapes = (
{
closed = 1;
nodes = (
(360,326,l),
(129,713,l),
(17,713,l),
(72,640,o),
(104,584,o),
(142,520,cs),
(279,284,l)
);
},
{
closed = 1;
nodes = (
(371,0,l),
(364,39,o),
(364,116,o),
(364,212,cs),
(364,313,l),
(271,313,l),
(271,212,ls),
(271,116,o),
(271,39,o),
(264,0,c)
);
},
{
closed = 1;
nodes = (
(496,520,ls),
(533,584,o),
(560,630,o),
(618,713,c),
(505,713,l),
(282,318,l),
(357,283,l)
);
}
);
width = 645;
},
{
anchors = (
{
name = bottom;
pos = (333,0);
},
{
name = top;
pos = (333,700);
},
{
name = topleft;
pos = (20,700);
}
);
layerId = "46716DA5-D33B-4776-83A4-F210AE3F70ED";
shapes = (
{
closed = 1;
nodes = (
(382,329,l),
(174,712,l),
(12,712,l),
(67,640,o),
(99,584,o),
(137,520,cs),
(281,273,l)
);
},
{
closed = 1;
nodes = (
(405,0,l),
(398,39,o),
(398,116,o),
(398,212,cs),
(398,339,l),
(259,339,l),
(259,212,ls),
(259,116,o),
(259,39,o),
(251,0,c)
);
},
{
closed = 1;
nodes = (
(522,520,ls),
(559,583,o),
(586,630,o),
(644,712,c),
(487,712,l),
(282,329,l),
(376,273,l)
);
}
);
width = 666;
}
);
unicode = 89;
}
{
glyphname = Z;
layers = (
{
anchors = (
{
name = bottom;
pos = (301,0);
},
{
name = center;
pos = (301,350);
},
{
name = top;
pos = (301,700);
}
);
layerId = m01;
shapes = (
{
closed = 1;
nodes = (
(554,0,l),
(554,90,l),
(515,83,o),
(438,81,o),
(342,81,cs),
(151,81,l),
(540,649,l),
(540,713,l),
(66,713,l),
(66,623,l),
(105,631,o),
(163,632,o),
(259,632,cs),
(425,632,l),
(37,61,l),
(37,0,l)
);
}
);
width = 601;
},
{
anchors = (
{
name = bottom;
pos = (305,0);
},
{
name = center;
pos = (305,350);
},
{
name = top;
pos = (305,700);
}
);
layerId = "46716DA5-D33B-4776-83A4-F210AE3F70ED";
shapes = (
{
closed = 1;
nodes = (
(569,0,l),
(569,122,l),
(529,115,o),
(452,112,o),
(356,112,cs),
(203,112,l),
(554,627,l),
(554,712,l),
(61,712,l),
(61,590,l),
(104,599,o),
(167,600,o),
(273,600,cs),
(387,600,l),
(32,78,l),
(32,0,l)
);
}
);
width = 610;
}
);
unicode = 90;
}
{
glyphname = a;
layers = (
{
anchors = (
{
name = bottom;
pos = (281,0);
},
{
name = ogonek;
pos = (506,10);
},
{
name = top;
pos = (281,500);
}
);
layerId = m01;
shapes = (
{
closed = 1;
nodes = (
(300,-12,o),
(369,99,o),
(408,200,c),
(408,161,l),
(408,118,o),
(416,31,o),
(430,0,c),
(515,0,l),
(496,55,o),
(483,136,o),
(483,259,c),
(483,486,l),
(434,499,o),
(378,508,o),
(315,508,cs),
(132,508,o),
(51,355,o),
(51,200,cs),
(51,62,o),
(116,-12,o),
(198,-12,cs)
);
},
{
closed = 1;
nodes = (
(174,71,o),
(142,125,o),
(142,200,cs),
(142,318,o),
(180,430,o),
(308,430,cs),
(356,430,o),
(377,425,o),
(393,421,c),
(393,359,ls),
(393,290,o),
(298,71,o),
(212,71,cs)
);
}
);
width = 562;
},
{
anchors = (
{
name = bottom;
pos = (307,0);
},
{
name = ogonek;
pos = (552,10);
},
{
name = top;
pos = (307,500);
}
);
layerId = "46716DA5-D33B-4776-83A4-F210AE3F70ED";
shapes = (
{
closed = 1;
nodes = (
(297,-12,o),
(379,87,o),
(415,171,c),
(415,143,ls),
(415,107,o),
(428,23,o),
(442,0,c),
(572,0,l),
(553,55,o),
(540,136,o),
(540,259,cs),
(540,486,l),
(484,498,o),
(411,508,o),
(340,508,cs),
(138,508,o),
(49,355,o),
(49,200,cs),
(49,62,o),
(113,-12,o),
(195,-12,cs)
);
},
{
closed = 1;
nodes = (
(210,104,o),
(186,143,o),
(186,200,cs),
(186,302,o),
(217,398,o),
(320,398,cs),
(361,398,o),
(387,392,o),
(400,389,c),
(400,356,ls),
(400,301,o),
(307,104,o),
(239,104,cs)
);
}
);
width = 613;
}
);
unicode = 97;
}
{
glyphname = b;
layers = (
{
anchors = (
{
name = bottom;
pos = (282,0);
},
{
name = center;
pos = (141,640);
},
{
name = top;
pos = (282,500);
}
);
layerId = m01;
shapes = (
{
closed = 1;
nodes = (
(425,-12,o),
(518,96,o),
(518,264,cs),
(518,406,o),
(448,508,o),
(349,508,cs),
(267,508,o),
(207,462,o),
(161,403,c),
(161,435,o),
(161,638,o),
(161,781,c),
(63,781,l),
(71,727,o),
(71,622,o),
(71,552,cs),
(71,457,o),
(71,111,o),
(71,32,c),
(133,13,o),
(202,-12,o),
(281,-12,cs)
);
},
{
closed = 1;
nodes = (
(239,63,o),
(209,70,o),
(161,90,c),
(161,286,l),
(194,367,o),
(259,422,o),
(320,422,cs),
(390,422,o),
(430,355,o),
(430,247,cs),
(430,137,o),
(367,63,o),
(281,63,cs)
);
}
);
width = 564;
},
{
anchors = (
{
name = bottom;
pos = (297,0);
},
{
name = center;
pos = (148,640);
},
{
name = top;
pos = (297,500);
}
);
layerId = "46716DA5-D33B-4776-83A4-F210AE3F70ED";
shapes = (
{
closed = 1;
nodes = (
(458,-12,o),
(549,96,o),
(549,264,cs),
(549,406,o),
(481,508,o),
(385,508,cs),
(305,508,o),
(246,467,o),
(203,412,c),
(203,444,o),
(203,641,o),
(203,781,c),
(59,781,l),
(66,726,o),
(66,621,o),
(66,551,cs),
(66,378,o),
(66,205,o),
(66,32,c),
(140,13,o),
(223,-12,o),
(317,-12,cs)
);
},
{
closed = 1;
nodes = (
(263,93,o),
(240,100,o),
(203,117,c),
(203,285,l),
(230,346,o),
(283,388,o),
(333,388,cs),
(387,388,o),
(417,334,o),
(417,246,cs),
(417,155,o),
(366,93,o),
(295,93,cs)
);
}
);
width = 593;
}
);
unicode = 98;
}
{
glyphname = c;
layers = (
{
anchors = (
{
name = bottom;
pos = (249,0);
},
{
name = top;
pos = (249,500);
}
);
layerId = m01;
shapes = (
{
closed = 1;
nodes = (
(356,-12,o),
(402,4,o),
(452,42,c),
(442,127,l),
(399,89,o),
(352,68,o),
(293,68,cs),
(198,68,o),
(139,139,o),
(139,244,cs),
(139,359,o),
(206,427,o),
(293,427,cs),
(343,427,o),
(386,411,o),
(430,378,c),
(447,466,l),
(411,491,o),
(365,508,o),
(300,508,cs),
(145,508,o),
(46,387,o),
(46,239,cs),
(46,83,o),
(152,-12,o),
(283,-12,cs)
);
}
);
width = 498;
},
{
anchors = (
{
name = bottom;
pos = (250,0);
},
{
name = top;
pos = (250,500);
}
);
layerId = "46716DA5-D33B-4776-83A4-F210AE3F70ED";
shapes = (
{
closed = 1;
nodes = (
(355,-12,o),
(410,4,o),
(455,34,c),
(440,151,l),
(398,118,o),
(360,98,o),
(301,98,cs),
(223,98,o),
(181,158,o),
(181,244,cs),
(181,339,o),
(228,400,o),
(301,400,cs),
(356,400,o),
(394,385,o),
(428,355,c),
(450,473,l),
(414,491,o),
(363,508,o),
(299,508,cs),
(144,508,o),
(44,391,o),
(44,239,cs),
(44,79,o),
(151,-12,o),
(282,-12,cs)
);
}
);
width = 499;
}
);
unicode = 99;
}
{
glyphname = d;
layers = (
{
anchors = (
{
name = bottom;
pos = (291,0);
},
{
name = center;
pos = (436,640);
},
{
name = top;
pos = (291,500);
},
{
name = topright;
pos = (540,800);
}
);
layerId = m01;
shapes = (
{
closed = 1;
nodes = (
(318,-12,o),
(378,24,o),
(425,90,c),
(433,54,o),
(444,17,o),
(452,0,c),
(540,0,l),
(519,55,o),
(503,136,o),
(503,259,c),
(503,781,l),
(400,781,l),
(410,740,o),
(413,681,o),
(413,603,c),
(413,466,l),
(375,488,o),
(325,508,o),
(283,508,cs),
(152,508,o),
(51,397,o),
(51,225,cs),
(51,82,o),
(127,-12,o),
(247,-12,cs)
);
},
{
closed = 1;
nodes = (
(179,66,o),
(142,126,o),
(142,239,cs),
(142,355,o),
(209,425,o),
(283,425,cs),
(333,425,o),
(364,414,o),
(413,388,c),
(413,195,l),
(386,131,o),
(323,66,o),
(264,66,cs)
);
}
);
width = 581;
},
{
anchors = (
{
name = bottom;
pos = (309,0);
},
{
name = center;
pos = (463,640);
},
{
name = top;
pos = (309,500);
},
{
name = topright;
pos = (581,800);
}
);
layerId = "46716DA5-D33B-4776-83A4-F210AE3F70ED";
shapes = (
{
closed = 1;
nodes = (
(319,-12,o),
(376,23,o),
(420,85,c),
(428,51,o),
(439,16,o),
(447,0,c),
(581,0,l),
(560,55,o),
(544,136,o),
(544,259,cs),
(544,781,l),
(395,781,l),
(405,740,o),
(407,681,o),
(407,603,cs),
(407,466,l),
(372,488,o),
(326,508,o),
(288,508,cs),
(156,508,o),
(49,397,o),
(49,224,cs),
(49,81,o),
(131,-12,o),
(251,-12,cs)
);
},
{
closed = 1;
nodes = (
(216,98,o),
(185,146,o),
(185,239,cs),
(185,334,o),
(237,390,o),
(288,390,cs),
(333,390,o),
(363,382,o),
(407,360,c),
(407,195,l),
(384,146,o),
(330,98,o),
(278,98,cs)
);
}
);
width = 617;
}
);
unicode = 100;
}
{
glyphname = e;
layers = (
{
anchors = (
{
name = bottom;
pos = (268,0);
},
{
name = ogonek;
pos = (482,10);
},
{
name = top;
pos = (268,500);
}
);
layerId = m01;
shapes = (
{
closed = 1;
nodes = (
(356,-12,o),
(417,1,o),
(486,37,c),
(476,117,l),
(417,81,o),
(356,68,o),
(293,68,cs),
(202,68,o),
(137,126,o),
(137,247,cs),
(137,376,o),
(188,435,o),
(273,435,cs),
(344,435,o),
(396,389,o),
(396,305,c),
(120,305,l),
(120,237,l),
(483,237,l),
(483,246,o),
(483,266,o),
(483,275,cs),
(483,385,o),
(442,508,o),
(281,508,cs),
(136,508,o),
(46,403,o),
(46,242,cs),
(46,76,o),
(156,-12,o),
(281,-12,cs)
);
}
);
width = 535;
},
{
anchors = (
{
name = bottom;
pos = (271,0);
},
{
name = ogonek;
pos = (488,10);
},
{
name = top;
pos = (271,500);
}
);
layerId = "46716DA5-D33B-4776-83A4-F210AE3F70ED";
shapes = (
{
closed = 1;
nodes = (
(364,-12,o),
(425,1,o),
(495,37,c),
(485,147,l),
(425,111,o),
(364,98,o),
(300,98,cs),
(219,98,o),
(177,143,o),
(177,246,cs),
(177,361,o),
(210,405,o),
(281,405,cs),
(338,405,o),
(368,376,o),
(368,307,c),
(118,307,l),
(118,220,l),
(493,220,l),
(493,229,o),
(492,250,o),
(492,260,cs),
(492,382,o),
(451,508,o),
(287,508,cs),
(137,508,o),
(44,403,o),
(44,242,cs),
(44,76,o),
(158,-12,o),
(287,-12,cs)
);
}
);
width = 542;
}
);
unicode = 101;
}
{
glyphname = f;
layers = (
{
anchors = (
{
name = bottom;
pos = (183,0);
},
{
name = top;
pos = (183,800);
}
);
layerId = m01;
shapes = (
{
closed = 1;
nodes = (
(222,0,l),
(211,51,o),
(208,146,o),
(208,241,cs),
(208,287,o),
(208,539,o),
(208,591,cs),
(208,674,o),
(235,708,o),
(286,708,cs),
(314,708,o),
(347,697,o),
(371,679,c),
(393,757,l),
(363,778,o),
(324,791,o),
(286,791,cs),
(180,791,o),
(117,718,o),
(117,571,cs),
(117,542,o),
(117,228,o),
(117,0,c)
);
},
{
closed = 1;
nodes = (
(339,415,l),
(339,486,l),
(20,486,l),
(20,415,l)
);
}
);
width = 366;
},
{
anchors = (
{
name = bottom;
pos = (195,0);
},
{
name = top;
pos = (195,800);
}
);
layerId = "46716DA5-D33B-4776-83A4-F210AE3F70ED";
shapes = (
{
closed = 1;
nodes = (
(264,0,l),
(253,51,o),
(249,146,o),
(249,241,cs),
(249,349,o),
(249,457,o),
(249,566,cs),
(249,645,o),
(269,677,o),
(316,677,cs),
(340,677,o),
(373,665,o),
(394,645,c),
(422,756,l),
(393,775,o),
(341,791,o),
(305,791,cs),
(184,791,o),
(112,715,o),
(112,571,cs),
(112,381,o),
(112,190,o),
(112,0,c)
);
},
{
closed = 1;
nodes = (
(373,393,l),
(373,490,l),
(15,490,l),
(15,393,l)
);
}
);
width = 390;
}
);
unicode = 102;
}
{
glyphname = g;
layers = (
{
anchors = (
{
name = bottom;
pos = (275,-200);
},
{
name = top;
pos = (275,500);
}
);
layerId = m01;
shapes = (
{
closed = 1;
nodes = (
(375,-229,o),
(483,-160,o),
(483,12,cs),
(483,471,l),
(430,489,o),
(364,508,o),
(305,508,cs),
(127,508,o),
(51,362,o),
(51,212,cs),
(51,57,o),
(135,-2,o),
(225,-2,cs),
(278,-2,o),
(342,31,o),
(393,95,c),
(393,-5,ls),
(393,-118,o),
(312,-151,o),
(261,-151,cs),
(213,-151,o),
(166,-128,o),
(120,-95,c),
(88,-171,l),
(140,-206,o),
(204,-229,o),
(266,-229,cs)
);
},
{
closed = 1;
nodes = (
(182,81,o),
(142,116,o),
(142,237,cs),
(142,329,o),
(184,425,o),
(291,425,cs),
(320,425,o),
(362,417,o),
(393,405,c),
(393,193,l),
(351,121,o),
(284,81,o),
(234,81,cs)
);
}
);
width = 549;
},
{
anchors = (
{
name = bottom;
pos = (289,-200);
},
{
name = top;
pos = (289,500);
}
);
layerId = "46716DA5-D33B-4776-83A4-F210AE3F70ED";
shapes = (
{
closed = 1;
nodes = (
(396,-229,o),
(517,-160,o),
(517,12,cs),
(517,471,l),
(460,488,o),
(386,508,o),
(323,508,cs),
(130,508,o),
(49,362,o),
(49,212,cs),
(49,57,o),
(130,-2,o),
(217,-2,cs),
(269,-2,o),
(331,25,o),
(381,85,c),
(381,-5,ls),
(381,-89,o),
(320,-120,o),
(259,-120,cs),
(205,-120,o),
(158,-97,o),
(117,-64,c),
(76,-166,l),
(122,-203,o),
(191,-229,o),
(278,-229,cs)
);
},
{
closed = 1;
nodes = (
(220,114,o),
(185,142,o),
(185,237,cs),
(185,313,o),
(219,391,o),
(305,391,cs),
(327,391,o),
(358,384,o),
(381,372,c),
(381,203,l),
(350,146,o),
(302,114,o),
(266,114,cs)
);
}
);
width = 578;
}
);
unicode = 103;
}
{
glyphname = h;
layers = (
{
anchors = (
{
name = bottom;
pos = (287,0);
},
{
name = center;
pos = (144,640);
},
{
name = top;
pos = (287,800);
}
);
layerId = m01;
shapes = (
{
closed = 1;
nodes = (
(161,0,l),
(161,283,l),
(183,350,o),
(250,422,o),
(320,422,cs),
(385,422,o),
(417,391,o),
(417,269,cs),
(417,220,o),
(417,87,o),
(417,0,c),
(508,0,l),
(508,96,o),
(508,246,o),
(508,305,cs),
(508,439,o),
(451,508,o),
(347,508,cs),
(278,508,o),
(209,473,o),
(161,405,c),
(161,422,o),
(161,629,o),
(161,781,c),
(63,781,l),
(71,739,o),
(71,657,o),
(71,552,cs),
(71,482,o),
(71,196,o),
(71,0,c)
);
}
);
width = 574;
},
{
anchors = (
{
name = bottom;
pos = (302,0);
},
{
name = center;
pos = (151,640);
},
{
name = top;
pos = (302,800);
}
);
layerId = "46716DA5-D33B-4776-83A4-F210AE3F70ED";
shapes = (
{
closed = 1;
nodes = (
(203,0,l),
(203,283,l),
(220,333,o),
(273,388,o),
(329,388,cs),
(382,388,o),
(405,363,o),
(405,268,cs),
(405,220,o),
(405,87,o),
(405,0,c),
(542,0,l),
(542,96,o),
(542,246,o),
(542,305,cs),
(542,439,o),
(492,508,o),
(393,508,cs),
(323,508,o),
(250,476,o),
(203,415,c),
(203,430,o),
(203,632,o),
(203,781,c),
(59,781,l),
(66,739,o),
(66,656,o),
(66,551,cs),
(66,482,o),
(66,196,o),
(66,0,c)
);
}
);
width = 603;
}
);
unicode = 104;
}
{
glyphname = i;
layers = (
{
anchors = (
{
name = bottom;
pos = (138,0);
}
);
layerId = m01;
shapes = (
{
closed = 1;
nodes = (
(193,0,l),
(187,52,o),
(183,169,o),
(183,232,cs),
(183,321,o),
(183,409,o),
(183,498,c),
(85,498,l),
(92,447,o),
(93,354,o),
(93,259,cs),
(93,189,o),
(93,70,o),
(93,0,c)
);
},
{
closed = 1;
nodes = (
(173,591,o),
(200,621,o),
(200,657,cs),
(200,693,o),
(173,723,o),
(137,723,cs),
(101,723,o),
(76,693,o),
(76,657,cs),
(76,621,o),
(101,591,o),
(137,591,cs)
);
}
);
width = 276;
},
{
anchors = (
{
name = bottom;
pos = (156,0);
}
);
layerId = "46716DA5-D33B-4776-83A4-F210AE3F70ED";
shapes = (
{
closed = 1;
nodes = (
(234,0,l),
(228,52,o),
(224,169,o),
(224,232,cs),
(224,262,o),
(224,401,o),
(224,498,c),
(81,498,l),
(87,447,o),
(88,354,o),
(88,259,cs),
(88,189,o),
(88,70,o),
(88,0,c)
);
},
{
closed = 1;
nodes = (
(206,590,o),
(242,625,o),
(242,676,cs),
(242,726,o),
(206,761,o),
(156,761,cs),
(107,761,o),
(71,726,o),
(71,676,cs),
(71,625,o),
(107,590,o),
(156,590,cs)
);
}
);
width = 312;
}
);
unicode = 105;
}
{
glyphname = j;
layers = (
{
layerId = m01;
shapes = (
{
closed = 1;
nodes = (
(126,-229,o),
(198,-170,o),
(198,12,cs),
(198,498,l),
(100,498,l),
(106,447,o),
(107,354,o),
(107,259,cs),
(107,-12,ls),
(107,-108,o),
(72,-146,o),
(20,-146,cs),
(-8,-146,o),
(-54,-133,o),
(-76,-117,c),
(-93,-198,l),
(-63,-218,o),
(-13,-229,o),
(15,-229,cs)
);
},
{
closed = 1;
nodes = (
(188,591,o),
(215,621,o),
(215,657,cs),
(215,693,o),
(188,723,o),
(151,723,cs),
(115,723,o),
(90,693,o),
(90,657,cs),
(90,621,o),
(115,591,o),
(151,591,cs)
);
}
);
width = 291;
},
{
layerId = "46716DA5-D33B-4776-83A4-F210AE3F70ED";
shapes = (
{
closed = 1;
nodes = (
(149,-229,o),
(244,-170,o),
(244,12,cs),
(244,498,l),
(100,498,l),
(106,447,o),
(107,354,o),
(107,259,cs),
(107,10,ls),
(107,-73,o),
(81,-113,o),
(23,-113,cs),
(-10,-113,o),
(-49,-95,o),
(-71,-74,c),
(-93,-190,l),
(-72,-205,o),
(-18,-229,o),
(27,-229,cs)
);
},
{
closed = 1;
nodes = (
(225,590,o),
(261,625,o),
(261,676,cs),
(261,726,o),
(225,761,o),
(176,761,cs),
(126,761,o),
(90,726,o),
(90,676,cs),
(90,625,o),
(126,590,o),
(176,590,cs)
);
}
);
width = 327;
}
);
unicode = 106;
}
{
glyphname = k;
layers = (
{
anchors = (
{
name = bottom;
pos = (253,0);
},
{
name = top;
pos = (253,800);
}
);
layerId = m01;
shapes = (
{
closed = 1;
nodes = (
(496,0,l),
(200,322,l),
(149,269,l),
(376,0,l)
);
},
{
closed = 1;
nodes = (
(161,0,l),
(161,781,l),
(63,781,l),
(71,739,o),
(71,657,o),
(71,552,cs),
(71,482,o),
(71,196,o),
(71,0,c)
);
},
{
closed = 1;
nodes = (
(481,498,l),
(359,498,l),
(137,269,l),
(213,256,l)
);
}
);
width = 505;
},
{
anchors = (
{
name = bottom;
pos = (278,0);
},
{
name = top;
pos = (278,800);
}
);
layerId = "46716DA5-D33B-4776-83A4-F210AE3F70ED";
shapes = (
{
closed = 1;
nodes = (
(550,0,l),
(264,324,l),
(171,278,l),
(371,0,l)
);
},
{
closed = 1;
nodes = (
(203,0,l),
(203,781,l),
(59,781,l),
(66,739,o),
(66,656,o),
(66,551,cs),
(66,482,o),
(66,196,o),
(66,0,c)
);
},
{
closed = 1;
nodes = (
(536,498,l),
(353,498,l),
(172,278,l),
(279,258,l)
);
}
);
width = 555;
}
);
unicode = 107;
}
{
glyphname = l;
layers = (
{
anchors = (
{
name = bottom;
pos = (138,0);
},
{
name = center;
pos = (138,400);
},
{
name = top;
pos = (138,800);
},
{
name = topright;
pos = (193,800);
}
);
layerId = m01;
shapes = (
{
closed = 1;
nodes = (
(193,0,l),
(187,53,o),
(183,169,o),
(183,232,cs),
(183,781,l),
(83,781,l),
(89,725,o),
(93,646,o),
(93,552,cs),
(93,0,l)
);
}
);
width = 276;
},
{
anchors = (
{
name = bottom;
pos = (156,0);
},
{
name = center;
pos = (156,400);
},
{
name = top;
pos = (156,800);
},
{
name = topright;
pos = (234,800);
}
);
layerId = "46716DA5-D33B-4776-83A4-F210AE3F70ED";
shapes = (
{
closed = 1;
nodes = (
(234,0,l),
(228,53,o),
(224,169,o),
(224,232,cs),
(224,781,l),
(78,781,l),
(84,725,o),
(88,646,o),
(88,551,cs),
(88,0,l)
);
}
);
width = 312;
}
);
unicode = 108;
}
{
glyphname = m;
layers = (
{
anchors = (
{
name = bottom;
pos = (412,0);
},
{
name = top;
pos = (412,500);
}
);
layerId = m01;
shapes = (
{
closed = 1;
nodes = (
(176,0,l),
(176,322,l),
(202,381,o),
(252,422,o),
(300,422,cs),
(355,422,o),
(371,399,o),
(371,278,cs),
(371,0,l),
(461,0,l),
(461,322,l),
(490,383,o),
(538,422,o),
(586,422,cs),
(641,422,o),
(657,395,o),
(657,269,cs),
(657,0,l),
(747,0,l),
(747,322,ls),
(747,443,o),
(714,508,o),
(615,508,cs),
(564,508,o),
(511,492,o),
(450,426,c),
(434,469,o),
(394,508,o),
(330,508,cs),
(273,508,o),
(224,491,o),
(165,422,c),
(161,446,o),
(156,478,o),
(149,498,c),
(61,498,l),
(71,464,o),
(85,396,o),
(85,300,cs),
(85,0,l)
);
}
);
width = 823;
},
{
anchors = (
{
name = bottom;
pos = (430,0);
},
{
name = top;
pos = (430,500);
}
);
layerId = "46716DA5-D33B-4776-83A4-F210AE3F70ED";
shapes = (
{
closed = 1;
nodes = (
(217,0,l),
(217,312,l),
(236,357,o),
(273,388,o),
(310,388,cs),
(353,388,o),
(366,370,o),
(366,278,cs),
(366,0,l),
(503,0,l),
(503,322,l),
(524,362,o),
(560,388,o),
(595,388,cs),
(639,388,o),
(651,366,o),
(651,268,cs),
(651,0,l),
(788,0,l),
(788,322,ls),
(788,443,o),
(755,508,o),
(656,508,cs),
(605,508,o),
(552,491,o),
(491,426,c),
(475,468,o),
(435,508,o),
(371,508,cs),
(314,508,o),
(265,492,o),
(206,427,c),
(201,449,o),
(194,479,o),
(183,498,c),
(56,498,l),
(66,464,o),
(81,396,o),
(81,300,cs),
(81,0,l)
);
}
);
width = 859;
}
);
unicode = 109;
}
{
glyphname = n;
layers = (
{
anchors = (
{
name = bottom;
pos = (290,0);
},
{
name = top;
pos = (290,500);
}
);
layerId = m01;
shapes = (
{
closed = 1;
nodes = (
(166,0,l),
(166,283,l),
(188,350,o),
(254,422,o),
(325,422,cs),
(391,422,o),
(422,391,o),
(422,269,cs),
(422,202,o),
(422,0,o),
(422,0,c),
(513,0,l),
(513,0,o),
(513,224,o),
(513,305,cs),
(513,439,o),
(456,508,o),
(352,508,cs),
(283,508,o),
(221,477,o),
(159,403,c),
(155,426,o),
(146,478,o),
(139,498,c),
(51,498,l),
(62,464,o),
(76,396,o),
(76,300,cs),
(76,205,o),
(76,0,o),
(76,0,c)
);
}
);
width = 579;
},
{
anchors = (
{
name = bottom;
pos = (304,0);
},
{
name = top;
pos = (304,500);
}
);
layerId = "46716DA5-D33B-4776-83A4-F210AE3F70ED";
shapes = (
{
closed = 1;
nodes = (
(207,0,l),
(207,283,l),
(224,333,o),
(278,388,o),
(334,388,cs),
(386,388,o),
(410,358,o),
(410,268,cs),
(410,202,o),
(410,0,o),
(410,0,c),
(547,0,l),
(547,0,o),
(547,224,o),
(547,305,cs),
(547,439,o),
(487,508,o),
(388,508,cs),
(319,508,o),
(262,478,o),
(200,407,c),
(197,430,o),
(188,478,o),
(181,498,c),
(46,498,l),
(57,464,o),
(71,396,o),
(71,300,cs),
(71,205,o),
(71,0,o),
(71,0,c)
);
}
);
width = 608;
}
);
unicode = 110;
}
{
glyphname = o;
layers = (
{
anchors = (
{
name = bottom;
pos = (279,0);
},
{
name = center;
pos = (279,250);
},
{
name = ogonek;
pos = (501,10);
},
{
name = top;
pos = (279,500);
},
{
name = topright;
pos = (537,500);
}
);
layerId = m01;
shapes = (
{
closed = 1;
nodes = (
(402,-12,o),
(510,79,o),
(510,247,cs),
(510,415,o),
(417,508,o),
(283,508,cs),
(155,508,o),
(46,415,o),
(46,247,cs),
(46,79,o),
(140,-12,o),
(273,-12,cs)
);
},
{
closed = 1;
nodes = (
(194,66,o),
(137,133,o),
(137,247,cs),
(137,361,o),
(199,430,o),
(278,430,cs),
(362,430,o),
(420,361,o),
(420,247,cs),
(420,133,o),
(357,66,o),
(278,66,cs)
);
}
);
width = 557;
},
{
anchors = (
{
name = bottom;
pos = (283,0);
},
{
name = center;
pos = (283,250);
},
{
name = ogonek;
pos = (509,10);
},
{
name = top;
pos = (283,500);
},
{
name = topright;
pos = (546,500);
}
);
layerId = "46716DA5-D33B-4776-83A4-F210AE3F70ED";
shapes = (
{
closed = 1;
nodes = (
(410,-12,o),
(522,80,o),
(522,247,cs),
(522,415,o),
(426,508,o),
(288,508,cs),
(156,508,o),
(44,415,o),
(44,247,cs),
(44,80,o),
(141,-12,o),
(278,-12,cs)
);
},
{
closed = 1;
nodes = (
(216,98,o),
(181,154,o),
(181,247,cs),
(181,341,o),
(220,398,o),
(283,398,cs),
(350,398,o),
(386,341,o),
(386,247,cs),
(386,154,o),
(346,98,o),
(283,98,cs)
);
}
);
width = 566;
}
);
unicode = 111;
}
{
glyphname = p;
layers = (
{
anchors = (
{
name = bottom;
pos = (286,0);
},
{
name = top;
pos = (286,500);
}
);
layerId = m01;
shapes = (
{
closed = 1;
nodes = (
(178,-239,l),
(170,-198,o),
(166,-151,o),
(166,-73,c),
(166,42,l),
(212,9,o),
(250,-12,o),
(303,-12,cs),
(425,-12,o),
(525,94,o),
(525,261,cs),
(525,404,o),
(451,508,o),
(339,508,cs),
(267,508,o),
(205,466,o),
(159,405,c),
(154,450,o),
(146,481,o),
(139,498,c),
(51,498,l),
(73,443,o),
(76,358,o),
(76,237,cs),
(76,167,o),
(76,-75,o),
(76,-239,c)
);
},
{
closed = 1;
nodes = (
(258,68,o),
(233,80,o),
(166,127,c),
(166,281,l),
(202,375,o),
(266,425,o),
(322,425,cs),
(393,425,o),
(435,355,o),
(435,247,cs),
(435,136,o),
(372,68,o),
(303,68,cs)
);
}
);
width = 571;
},
{
anchors = (
{
name = bottom;
pos = (302,0);
},
{
name = top;
pos = (302,500);
}
);
layerId = "46716DA5-D33B-4776-83A4-F210AE3F70ED";
shapes = (
{
closed = 1;
nodes = (
(220,-239,l),
(211,-198,o),
(207,-151,o),
(207,-73,cs),
(207,32,l),
(253,5,o),
(290,-12,o),
(341,-12,cs),
(461,-12,o),
(559,94,o),
(559,261,cs),
(559,404,o),
(486,508,o),
(377,508,cs),
(306,508,o),
(245,469,o),
(200,415,c),
(196,455,o),
(188,483,o),
(181,498,c),
(46,498,l),
(68,443,o),
(71,358,o),
(71,237,cs),
(71,78,o),
(71,-81,o),
(71,-239,c)
);
},
{
closed = 1;
nodes = (
(275,101,o),
(257,110,o),
(207,146,c),
(207,285,l),
(235,354,o),
(285,391,o),
(328,391,cs),
(387,391,o),
(422,335,o),
(422,246,cs),
(422,156,o),
(368,101,o),
(309,101,cs)
);
}
);
width = 603;
}
);
unicode = 112;
}
{
glyphname = q;
layers = (
{
anchors = (
{
name = bottom;
pos = (276,0);
},
{
name = top;
pos = (276,500);
}
);
layerId = m01;
shapes = (
{
closed = 1;
nodes = (
(491,-239,l),
(482,-198,o),
(479,-151,o),
(479,-73,cs),
(479,-29,o),
(479,263,o),
(479,471,c),
(426,489,o),
(364,508,o),
(305,508,cs),
(127,508,o),
(51,362,o),
(51,212,cs),
(51,57,o),
(157,-12,o),
(247,-12,cs),
(292,-12,o),
(337,9,o),
(388,68,c),
(388,-239,l)
);
},
{
closed = 1;
nodes = (
(201,71,o),
(142,116,o),
(142,237,cs),
(142,329,o),
(184,425,o),
(291,425,cs),
(320,425,o),
(359,417,o),
(388,405,c),
(388,178,l),
(348,107,o),
(299,71,o),
(254,71,cs)
);
}
);
width = 552;
},
{
anchors = (
{
name = bottom;
pos = (295,0);
},
{
name = top;
pos = (295,500);
}
);
layerId = "46716DA5-D33B-4776-83A4-F210AE3F70ED";
shapes = (
{
closed = 1;
nodes = (
(534,-239,l),
(526,-198,o),
(522,-151,o),
(522,-73,cs),
(522,-29,o),
(522,263,o),
(522,471,c),
(456,488,o),
(377,508,o),
(303,508,cs),
(124,508,o),
(49,362,o),
(49,212,cs),
(49,57,o),
(154,-12,o),
(244,-12,cs),
(289,-12,o),
(335,7,o),
(386,59,c),
(386,-239,l)
);
},
{
closed = 1;
nodes = (
(232,99,o),
(185,140,o),
(185,237,cs),
(185,313,o),
(223,391,o),
(320,391,cs),
(340,391,o),
(366,385,o),
(386,376,c),
(386,180,l),
(355,126,o),
(317,99,o),
(283,99,cs)
);
}
);
width = 590;
}
);
unicode = 113;
}
{
glyphname = r;
layers = (
{
anchors = (
{
name = bottom;
pos = (218,0);
},
{
name = top;
pos = (218,500);
}
);
layerId = m01;
shapes = (
{
closed = 1;
nodes = (
(166,0,l),
(166,283,l),
(188,350,o),
(254,420,o),
(295,420,cs),
(334,420,o),
(352,376,o),
(352,327,c),
(430,344,l),
(430,430,o),
(399,508,o),
(317,508,cs),
(273,508,o),
(206,471,o),
(159,403,c),
(155,426,o),
(146,478,o),
(139,498,c),
(51,498,l),
(62,464,o),
(76,396,o),
(76,300,cs),
(76,0,l)
);
}
);
width = 435;
},
{
anchors = (
{
name = bottom;
pos = (243,0);
},
{
name = top;
pos = (243,500);
}
);
layerId = "46716DA5-D33B-4776-83A4-F210AE3F70ED";
shapes = (
{
closed = 1;
nodes = (
(207,0,l),
(207,259,l),
(224,319,o),
(278,381,o),
(311,381,cs),
(352,381,o),
(368,352,o),
(372,307,c),
(481,325,l),
(481,424,o),
(446,508,o),
(354,508,cs),
(309,508,o),
(247,470,o),
(200,403,c),
(197,426,o),
(188,477,o),
(181,498,c),
(46,498,l),
(57,464,o),
(71,396,o),
(71,300,cs),
(71,0,l)
);
}
);
width = 486;
}
);
unicode = 114;
}
{
glyphname = s;
layers = (
{
anchors = (
{
name = bottom;
pos = (236,0);
},
{
name = top;
pos = (236,500);
}
);
layerId = m01;
shapes = (
{
closed = 1;
nodes = (
(347,-12,o),
(430,56,o),
(430,144,cs),
(430,235,o),
(357,273,o),
(269,293,cs),
(166,316,o),
(151,332,o),
(151,366,cs),
(151,396,o),
(175,430,o),
(247,430,cs),
(307,430,o),
(358,402,o),
(391,383,c),
(408,469,l),
(374,487,o),
(322,508,o),
(251,508,cs),
(103,508,o),
(63,406,o),
(63,361,cs),
(63,301,o),
(89,251,o),
(208,222,cs),
(317,195,o),
(342,168,o),
(342,132,cs),
(342,98,o),
(301,66,o),
(244,66,cs),
(192,66,o),
(122,92,o),
(78,132,c),
(54,44,l),
(92,14,o),
(163,-12,o),
(242,-12,cs)
);
}
);
width = 471;
},
{
anchors = (
{
name = bottom;
pos = (253,0);
},
{
name = top;
pos = (253,500);
}
);
layerId = "46716DA5-D33B-4776-83A4-F210AE3F70ED";
shapes = (
{
closed = 1;
nodes = (
(375,-12,o),
(468,60,o),
(468,154,cs),
(468,246,o),
(385,285,o),
(283,305,cs),
(198,322,o),
(185,332,o),
(185,356,cs),
(185,376,o),
(204,400,o),
(261,400,cs),
(329,400,o),
(386,373,o),
(423,354,c),
(442,468,l),
(404,487,o),
(346,508,o),
(266,508,cs),
(99,508,o),
(54,399,o),
(54,351,cs),
(54,290,o),
(83,241,o),
(222,211,cs),
(315,191,o),
(337,170,o),
(337,142,cs),
(337,119,o),
(305,98,o),
(259,98,cs),
(202,98,o),
(124,124,o),
(76,163,c),
(49,44,l),
(91,14,o),
(169,-12,o),
(256,-12,cs)
);
}
);
width = 505;
}
);
unicode = 115;
}
{
glyphname = t;
layers = (
{
anchors = (
{
name = bottom;
pos = (204,0);
},
{
name = center;
pos = (204,250);
},
{
name = top;
pos = (204,645);
},
{
name = topright;
pos = (388,800);
}
);
layerId = m01;
shapes = (
{
closed = 1;
nodes = (
(284,-12,o),
(326,-2,o),
(371,27,c),
(371,105,l),
(328,81,o),
(293,68,o),
(265,68,cs),
(221,68,o),
(203,90,o),
(203,190,cs),
(203,240,o),
(203,478,o),
(203,645,c),
(112,645,l),
(112,458,o),
(112,190,o),
(112,132,cs),
(112,19,o),
(174,-12,o),
(250,-12,cs)
);
},
{
closed = 1;
nodes = (
(351,415,l),
(361,486,l),
(25,486,l),
(15,415,l)
);
}
);
width = 408;
},
{
anchors = (
{
name = bottom;
pos = (216,0);
},
{
name = center;
pos = (216,250);
},
{
name = top;
pos = (216,644);
},
{
name = topright;
pos = (412,800);
}
);
layerId = "46716DA5-D33B-4776-83A4-F210AE3F70ED";
shapes = (
{
closed = 1;
nodes = (
(310,-12,o),
(354,-1,o),
(400,28,c),
(400,137,l),
(362,113,o),
(331,101,o),
(306,101,cs),
(262,101,o),
(244,115,o),
(244,225,cs),
(244,365,o),
(244,505,o),
(244,644,c),
(107,644,l),
(107,473,o),
(107,303,o),
(107,132,cs),
(107,19,o),
(183,-12,o),
(275,-12,cs)
);
},
{
closed = 1;
nodes = (
(393,393,l),
(393,490,l),
(15,490,l),
(15,393,l)
);
}
);
width = 432;
}
);
unicode = 116;
}
{
glyphname = u;
layers = (
{
anchors = (
{
name = bottom;
pos = (290,0);
},
{
name = ogonek;
pos = (521,10);
},
{
name = top;
pos = (290,500);
},
{
name = topright;
pos = (559,500);
}
);
layerId = m01;
shapes = (
{
closed = 1;
nodes = (
(300,-12,o),
(363,26,o),
(422,98,c),
(427,61,o),
(440,22,o),
(449,0,c),
(532,0,l),
(512,55,o),
(500,125,o),
(500,220,c),
(500,498,l),
(400,498,l),
(409,438,o),
(410,406,o),
(410,342,cs),
(410,205,l),
(384,146,o),
(307,68,o),
(249,68,cs),
(187,68,o),
(166,116,o),
(166,227,c),
(166,498,l),
(66,498,l),
(75,439,o),
(76,404,o),
(76,342,cs),
(76,333,o),
(76,207,o),
(76,198,cs),
(76,59,o),
(128,-12,o),
(232,-12,cs)
);
}
);
width = 579;
},
{
anchors = (
{
name = bottom;
pos = (304,0);
},
{
name = ogonek;
pos = (547,10);
},
{
name = top;
pos = (304,500);
},
{
name = topright;
pos = (588,500);
}
);
layerId = "46716DA5-D33B-4776-83A4-F210AE3F70ED";
shapes = (
{
closed = 1;
nodes = (
(290,-12,o),
(352,23,o),
(410,90,c),
(415,57,o),
(427,21,o),
(437,0,c),
(566,0,l),
(546,55,o),
(534,125,o),
(534,220,c),
(534,498,l),
(388,498,l),
(397,438,o),
(398,406,o),
(398,342,cs),
(398,204,l),
(378,159,o),
(318,101,o),
(273,101,cs),
(224,101,o),
(207,139,o),
(207,227,c),
(207,498,l),
(61,498,l),
(70,439,o),
(71,404,o),
(71,342,cs),
(71,332,o),
(71,207,o),
(71,198,cs),
(71,59,o),
(122,-12,o),
(224,-12,cs)
);
}
);
width = 608;
}
);
unicode = 117;
}
{
glyphname = v;
layers = (
{
anchors = (
{
name = bottom;
pos = (261,0);
},
{
name = top;
pos = (261,500);
}
);
layerId = m01;
shapes = (
{
closed = 1;
nodes = (
(308,0,l),
(353,112,o),
(418,279,o),
(437,325,cs),
(453,363,o),
(485,442,o),
(513,498,c),
(410,498,l),
(261,98,l),
(112,498,l),
(10,498,l),
(37,442,o),
(70,364,o),
(85,325,cs),
(107,270,o),
(172,107,o),
(215,0,c)
);
}
);
width = 522;
},
{
anchors = (
{
name = bottom;
pos = (270,0);
},
{
name = top;
pos = (270,500);
}
);
layerId = "46716DA5-D33B-4776-83A4-F210AE3F70ED";
shapes = (
{
closed = 1;
nodes = (
(329,0,l),
(372,108,o),
(433,262,o),
(458,325,cs),
(474,363,o),
(506,442,o),
(534,498,c),
(384,498,l),
(271,142,l),
(157,498,l),
(5,498,l),
(32,442,o),
(65,364,o),
(81,325,cs),
(111,249,o),
(167,108,o),
(210,0,c)
);
}
);
width = 539;
}
);
unicode = 118;
}
{
glyphname = w;
layers = (
{
anchors = (
{
name = bottom;
pos = (379,0);
},
{
name = top;
pos = (379,500);
}
);
layerId = m01;
shapes = (
{
closed = 1;
nodes = (
(256,0,l),
(378,383,l),
(500,0,l),
(593,0,l),
(684,325,ls),
(700,383,o),
(712,424,o),
(735,498,c),
(645,498,l),
(542,105,l),
(415,498,l),
(342,498,l),
(215,105,l),
(112,498,l),
(22,498,l),
(45,423,o),
(59,376,o),
(73,325,cs),
(164,0,l)
);
}
);
width = 757;
},
{
anchors = (
{
name = bottom;
pos = (383,0);
},
{
name = top;
pos = (383,500);
}
);
layerId = "46716DA5-D33B-4776-83A4-F210AE3F70ED";
shapes = (
{
closed = 1;
nodes = (
(300,0,l),
(383,339,l),
(466,0,l),
(608,0,l),
(698,325,ls),
(714,383,o),
(726,424,o),
(749,498,c),
(609,498,l),
(532,139,l),
(442,498,l),
(325,498,l),
(234,139,l),
(158,498,l),
(17,498,l),
(40,423,o),
(54,376,o),
(68,325,cs),
(159,0,l)
);
}
);
width = 766;
}
);
unicode = 119;
}
{
glyphname = x;
layers = (
{
anchors = (
{
name = bottom;
pos = (265,0);
},
{
name = top;
pos = (265,500);
}
);
layerId = m01;
shapes = (
{
closed = 1;
nodes = (
(505,0,l),
(453,69,o),
(440,83,o),
(405,132,cs),
(142,498,l),
(29,498,l),
(82,433,o),
(99,412,o),
(132,366,c),
(393,0,l)
);
},
{
closed = 1;
nodes = (
(134,0,l),
(271,197,l),
(239,301,l),
(122,132,ls),
(92,89,o),
(78,70,o),
(24,0,c)
);
},
{
closed = 1;
nodes = (
(400,366,ls),
(431,411,o),
(448,433,o),
(498,498,c),
(388,498,l),
(254,300,l),
(286,198,l)
);
}
);
width = 530;
},
{
anchors = (
{
name = bottom;
pos = (289,0);
},
{
name = top;
pos = (289,500);
}
);
layerId = "46716DA5-D33B-4776-83A4-F210AE3F70ED";
shapes = (
{
closed = 1;
nodes = (
(559,0,l),
(506,63,o),
(483,93,o),
(454,132,cs),
(185,498,l),
(24,498,l),
(77,433,o),
(94,411,o),
(127,366,cs),
(398,0,l)
);
},
{
closed = 1;
nodes = (
(168,0,l),
(285,175,l),
(244,301,l),
(120,132,ls),
(95,98,o),
(73,70,o),
(20,0,c)
);
},
{
closed = 1;
nodes = (
(451,366,ls),
(478,403,o),
(501,432,o),
(551,498,c),
(403,498,l),
(290,326,l),
(329,198,l)
);
}
);
width = 578;
}
);
unicode = 120;
}
{
glyphname = y;
layers = (
{
anchors = (
{
name = bottom;
pos = (259,0);
},
{
name = top;
pos = (259,500);
}
);
layerId = m01;
shapes = (
{
closed = 1;
nodes = (
(193,-229,o),
(252,-187,o),
(320,0,cs),
(437,325,ls),
(453,370,o),
(474,422,o),
(508,498,c),
(410,498,l),
(366,371,o),
(306,200,o),
(270,98,c),
(258,66,o),
(250,42,o),
(244,27,cs),
(191,-121,o),
(154,-146,o),
(110,-146,cs),
(78,-146,o),
(40,-127,o),
(20,-110,c),
(-10,-188,l),
(26,-214,o),
(65,-229,o),
(110,-229,cs)
);
},
{
closed = 1;
nodes = (
(298,29,l),
(112,498,l),
(15,498,l),
(52,422,o),
(75,369,o),
(93,325,cs),
(256,-81,l)
);
}
);
width = 518;
},
{
anchors = (
{
name = bottom;
pos = (269,0);
},
{
name = top;
pos = (269,500);
}
);
layerId = "46716DA5-D33B-4776-83A4-F210AE3F70ED";
shapes = (
{
closed = 1;
nodes = (
(208,-229,o),
(276,-189,o),
(344,0,cs),
(461,325,ls),
(477,370,o),
(498,422,o),
(532,498,c),
(379,498,l),
(358,422,o),
(319,282,o),
(279,140,c),
(264,96,o),
(231,27,o),
(217,-8,cs),
(180,-100,o),
(149,-118,o),
(120,-118,cs),
(87,-118,o),
(50,-99,o),
(29,-81,c),
(-5,-188,l),
(31,-214,o),
(75,-229,o),
(120,-229,cs)
);
},
{
closed = 1;
nodes = (
(293,102,l),
(163,498,l),
(10,498,l),
(47,422,o),
(70,369,o),
(88,325,cs),
(229,-40,l)
);
}
);
width = 537;
}
);
unicode = 121;
}
{
glyphname = z;
layers = (
{
anchors = (
{
name = bottom;
pos = (254,0);
},
{
name = center;
pos = (254,250);
},
{
name = top;
pos = (254,500);
}
);
layerId = m01;
shapes = (
{
closed = 1;
nodes = (
(461,0,l),
(461,81,l),
(432,73,o),
(402,73,o),
(374,73,cs),
(164,73,l),
(454,452,l),
(454,498,l),
(66,498,l),
(66,417,l),
(84,425,o),
(113,425,o),
(142,425,cs),
(332,425,l),
(51,54,l),
(51,0,l)
);
}
);
width = 508;
},
{
anchors = (
{
name = bottom;
pos = (259,0);
},
{
name = center;
pos = (259,250);
},
{
name = top;
pos = (259,500);
}
);
layerId = "46716DA5-D33B-4776-83A4-F210AE3F70ED";
shapes = (
{
closed = 1;
nodes = (
(476,0,l),
(476,112,l),
(440,105,o),
(403,105,o),
(368,105,cs),
(210,105,l),
(468,427,l),
(468,498,l),
(61,498,l),
(61,386,l),
(79,393,o),
(108,393,o),
(137,393,cs),
(300,393,l),
(46,78,l),
(46,0,l)
);
}
);
width = 517;
}
);
unicode = 122;
}
